<?xml version="1.0" standalone="no"?>
<!DOCTYPE svg PUBLIC "-//W3C//DTD SVG 20010904//EN"
 "http://www.w3.org/TR/2001/REC-SVG-20010904/DTD/svg10.dtd">
<svg version="1.0" xmlns="http://www.w3.org/2000/svg"
 width="722.000000pt" height="722.000000pt" viewBox="0 0 722.000000 722.000000"
 preserveAspectRatio="xMidYMid meet">
<metadata>
Created by potrace 1.11, written by Peter Selinger 2001-2013
</metadata>
<g transform="translate(0.000000,722.000000) scale(0.100000,-0.100000)"
fill="#000000" stroke="none">
<path d="M3177 7058 c-27 -3 -90 -9 -140 -13 -55 -4 -142 -20 -217 -40 -69
-19 -136 -36 -150 -39 -172 -30 -270 -67 -520 -192 -135 -68 -283 -141 -330
-163 -100 -48 -144 -72 -225 -126 -75 -49 -279 -202 -325 -244 -19 -18 -66
-60 -105 -94 -137 -122 -159 -143 -194 -181 -20 -22 -41 -44 -47 -50 -13 -13
-81 -91 -150 -172 -209 -241 -420 -621 -504 -904 -15 -52 -33 -108 -39 -124
-25 -64 -123 -418 -137 -493 -2 -13 -6 -33 -8 -45 -2 -13 -12 -52 -21 -88 -9
-36 -19 -78 -21 -94 -2 -15 -5 -35 -8 -45 -3 -9 -7 -38 -11 -66 -3 -27 -8 -66
-11 -85 -3 -19 -7 -116 -9 -215 -4 -180 4 -275 40 -472 9 -49 18 -101 21 -118
3 -16 7 -41 10 -55 3 -14 7 -38 10 -55 3 -16 9 -46 14 -65 5 -19 12 -48 14
-65 3 -16 15 -66 26 -110 11 -44 22 -89 25 -100 8 -33 61 -192 105 -315 23
-63 62 -173 87 -245 37 -110 57 -150 129 -257 131 -197 191 -269 449 -532 61
-62 81 -78 165 -136 36 -25 81 -60 100 -77 20 -18 63 -51 96 -74 32 -23 61
-44 64 -48 8 -10 78 -61 84 -61 3 0 33 -20 68 -44 239 -166 574 -344 753 -400
100 -30 452 -113 523 -122 35 -4 65 -9 108 -18 38 -8 98 -18 134 -22 43 -5 82
-11 135 -18 22 -3 65 -8 95 -10 30 -3 91 -8 135 -13 101 -10 380 -10 505 0
153 13 175 15 175 17 0 1 20 4 43 6 63 7 92 21 92 42 0 22 -34 42 -70 42 -14
0 -36 1 -50 1 -23 1 -88 -5 -165 -16 -164 -24 -459 -24 -645 -1 -19 3 -62 7
-95 11 -52 6 -170 24 -255 40 -14 3 -41 8 -60 11 -42 6 -202 41 -275 60 -5 1
-25 5 -42 8 -125 24 -267 68 -398 126 -27 13 -70 31 -95 42 -25 11 -89 46
-143 77 -54 31 -122 69 -150 85 -70 39 -304 196 -334 224 -13 12 -26 22 -28
22 -3 0 -17 13 -32 28 -16 15 -64 55 -109 87 -44 33 -121 97 -170 142 -49 45
-108 95 -129 111 -60 44 -129 123 -245 282 -212 291 -274 414 -356 710 -20 69
-37 132 -39 140 -8 38 -28 106 -56 192 -17 51 -40 138 -51 193 -25 128 -26
133 -32 153 -3 9 -8 35 -12 57 -3 22 -8 43 -11 47 -6 11 -12 44 -18 98 -3 25
-7 63 -10 85 -15 125 -18 173 -18 295 0 211 13 361 40 480 8 36 17 76 19 90 2
14 7 36 10 50 3 14 7 32 9 40 3 13 63 243 85 325 19 71 93 303 108 340 10 21
16 41 15 42 -1 1 41 89 94 194 84 168 215 383 279 459 12 14 48 57 80 95 116
140 336 359 478 476 16 13 38 32 48 42 10 9 23 17 28 17 5 0 10 4 10 8 0 8
123 102 134 102 3 0 31 20 62 45 30 25 64 45 74 45 11 0 20 4 20 10 0 5 84 50
188 101 103 50 195 95 205 100 244 129 451 217 549 234 18 3 62 13 98 21 36 9
75 18 87 20 12 2 35 9 50 15 16 6 28 10 28 9 0 -1 16 1 35 5 59 11 73 13 125
19 121 15 210 20 355 20 226 0 559 -16 630 -30 14 -2 59 -7 100 -9 41 -3 86
-7 100 -10 14 -3 48 -8 75 -10 51 -5 110 -14 250 -41 44 -8 89 -16 100 -18 59
-10 233 -62 330 -98 61 -22 126 -47 147 -54 159 -58 454 -207 466 -236 2 -4
10 -8 18 -8 8 0 20 -4 27 -10 7 -5 57 -43 112 -83 176 -130 300 -243 480 -438
69 -75 227 -303 260 -374 10 -22 38 -71 63 -110 45 -70 173 -325 244 -486 89
-200 133 -358 182 -651 2 -13 8 -50 15 -83 6 -33 13 -78 16 -100 4 -22 13 -75
20 -118 27 -146 37 -484 20 -672 -5 -55 -10 -197 -11 -315 -1 -220 -7 -311
-23 -352 -16 -43 21 -77 48 -45 6 8 12 22 14 33 7 37 28 109 38 129 5 11 11
34 14 50 10 70 15 101 20 125 4 14 8 79 11 145 6 152 9 189 17 201 8 13 2 632
-7 664 -4 14 -9 41 -11 60 -3 19 -7 46 -10 60 -3 14 -7 39 -9 55 -4 28 -31
184 -40 231 -2 12 -7 38 -10 59 -4 20 -8 40 -10 44 -2 3 -7 23 -10 43 -34 216
-154 528 -324 843 -93 172 -174 310 -203 347 -16 20 -29 42 -29 47 0 6 -4 11
-8 11 -5 0 -15 12 -23 28 -58 113 -308 375 -500 524 -19 14 -68 53 -110 86
-121 95 -273 191 -412 259 -70 35 -130 63 -132 63 -3 0 -24 9 -48 19 -23 11
-85 36 -137 56 -52 20 -123 48 -157 61 -58 23 -218 68 -273 78 -14 2 -65 12
-115 21 -49 10 -99 19 -110 20 -11 2 -47 8 -80 14 -135 24 -180 29 -300 36
-55 4 -129 8 -165 10 -258 17 -727 24 -803 13z"/>
<path d="M2378 6295 c-2 -2 -15 -6 -28 -9 -14 -3 -52 -12 -85 -21 -33 -8 -69
-17 -80 -19 -102 -23 -336 -99 -360 -116 -9 -7 -308 -133 -419 -176 -26 -10
-51 -27 -55 -36 -3 -9 -22 -27 -41 -40 -64 -43 -47 -110 27 -103 54 6 71 10
170 44 75 26 288 119 345 151 47 26 187 73 213 71 17 -1 39 2 50 8 117 54 299
123 362 136 109 23 259 14 434 -26 55 -12 60 -13 124 -24 56 -10 64 -12 68
-14 1 -2 14 -4 28 -6 15 -2 44 -6 65 -10 22 -3 57 -8 79 -11 22 -3 72 -17 110
-31 93 -33 111 -39 175 -57 30 -9 111 -32 178 -51 68 -19 127 -37 131 -39 6
-4 125 -30 191 -41 19 -3 37 -10 40 -14 7 -11 92 -29 169 -36 75 -7 133 -15
142 -21 7 -4 76 -9 259 -19 41 -2 89 -7 105 -10 17 -4 48 -10 70 -15 41 -8
-178 -4 -265 5 -55 5 -138 16 -164 21 -10 2 -62 6 -115 9 -118 7 -180 13 -190
19 -4 3 -25 7 -46 10 -22 4 -55 9 -74 12 -22 5 -36 2 -41 -6 -13 -21 -1 -38
43 -59 43 -20 98 -28 242 -37 44 -2 87 -6 95 -9 8 -3 33 -7 55 -10 22 -3 51
-7 65 -10 14 -3 79 -7 145 -10 66 -3 138 -7 160 -10 22 -2 72 -7 110 -10 105
-9 185 -27 185 -43 0 -3 -12 -24 -27 -46 -45 -64 -100 -84 -233 -82 -69 1
-114 6 -121 13 -9 9 -18 9 -31 2 -14 -7 -45 -7 -103 0 -46 7 -159 12 -250 13
-91 0 -165 5 -165 9 0 5 -6 6 -13 4 -7 -3 -46 4 -87 15 -161 44 -148 43 -199
17 -46 -24 -65 -30 -137 -44 -56 -11 -321 -5 -370 8 -32 8 -47 8 -65 -1 -12
-7 -47 -14 -76 -16 -29 -1 -69 -8 -87 -14 -44 -14 -87 -18 -222 -21 -98 -2
-117 1 -159 21 -73 35 -92 79 -99 224 -2 43 -7 62 -21 72 -26 19 -36 8 -32
-37 l4 -40 -19 21 c-16 17 -23 19 -34 9 -8 -6 -14 -20 -14 -30 0 -11 -7 -19
-15 -19 -14 0 -20 -13 -15 -35 1 -5 3 -17 5 -27 2 -9 11 -30 19 -47 9 -17 14
-31 10 -31 -4 0 -1 -7 6 -15 7 -9 10 -18 7 -21 -3 -3 -54 -23 -114 -44 -59
-21 -137 -54 -173 -73 -36 -20 -93 -49 -126 -65 -77 -38 -107 -68 -93 -94 7
-14 16 -17 37 -12 56 14 118 37 210 80 52 25 96 43 98 41 1 -1 -30 -25 -69
-52 -129 -89 -211 -167 -256 -247 -34 -59 -37 -73 -17 -81 15 -6 159 108 255
204 58 57 273 204 323 220 18 6 43 15 54 21 16 7 28 6 45 -5 19 -12 49 -14
149 -11 69 2 141 4 160 4 74 -1 83 0 94 9 17 14 128 28 192 24 206 -13 406 0
497 34 62 22 94 26 130 14 32 -10 107 -23 140 -25 21 0 21 -9 3 -44 -14 -28
-32 -99 -42 -166 -3 -22 -16 -48 -29 -60 -12 -11 -28 -36 -33 -53 -11 -33 -8
-341 3 -418 3 -22 8 -53 10 -70 2 -16 6 -52 9 -80 7 -58 13 -133 21 -260 3
-49 8 -108 10 -130 2 -22 6 -73 10 -113 3 -40 8 -83 11 -95 2 -12 6 -42 9 -67
3 -25 8 -56 12 -70 3 -14 7 -52 8 -85 5 -97 16 -243 20 -265 3 -17 -4 -14 -41
19 -49 43 -113 68 -156 63 -25 -3 -72 -40 -74 -59 0 -4 -5 -17 -10 -28 -16
-35 -9 -342 11 -435 9 -47 18 -92 20 -100 1 -8 6 -37 9 -64 4 -27 9 -53 11
-56 3 -4 7 -22 9 -41 3 -19 10 -52 15 -74 5 -22 12 -60 15 -85 7 -55 14 -95
23 -135 4 -16 8 -37 10 -45 4 -18 10 -105 19 -245 6 -114 27 -182 81 -270 50
-81 50 -114 -4 -350 -13 -60 -26 -117 -28 -125 -2 -8 -10 -47 -19 -85 -25
-118 -66 -265 -102 -370 -32 -93 -33 -101 -17 -112 9 -7 23 -13 31 -13 7 0 10
-5 6 -11 -3 -6 0 -15 7 -20 26 -16 53 25 75 116 1 6 10 28 19 50 10 22 17 55
17 73 -1 19 7 59 18 90 11 31 21 68 24 82 3 14 9 39 15 55 44 131 72 280 75
397 0 38 3 68 6 68 3 0 26 -18 50 -39 l45 -39 0 -97 c0 -103 6 -116 50 -107
28 5 37 27 41 97 1 28 3 55 3 61 1 8 22 3 59 -11 31 -13 71 -26 89 -28 28 -4
33 -2 41 21 11 35 -3 112 -26 134 -10 10 -39 18 -72 21 -30 2 -71 13 -90 24
-44 25 -89 88 -96 133 -12 86 -15 123 -18 235 -5 211 18 360 74 478 28 60 29
66 13 147 -13 62 -8 346 7 399 16 59 51 94 83 82 20 -8 31 -4 57 18 28 23 32
32 26 54 -3 15 -21 41 -38 58 l-32 30 1 112 c0 62 4 141 8 177 6 53 3 76 -13
125 -25 75 -35 163 -34 288 2 71 -2 106 -13 127 -9 17 -15 33 -15 37 1 5 -4
29 -10 55 -7 25 -9 61 -6 80 3 18 8 56 11 83 14 114 51 189 103 211 29 12 33
11 44 -9 8 -14 13 -75 14 -162 5 -259 13 -322 47 -363 6 -8 12 -19 13 -26 14
-82 17 -105 19 -131 6 -64 17 -121 30 -150 24 -54 35 -108 40 -205 4 -60 12
-171 20 -265 1 -22 8 -52 14 -68 6 -15 9 -41 7 -57 -2 -16 2 -37 9 -47 14 -21
35 -118 31 -148 -4 -36 -27 -109 -62 -197 l-35 -88 18 -37 c10 -21 18 -60 19
-88 13 -415 17 -480 34 -550 6 -27 13 -61 15 -75 5 -33 10 -56 25 -110 7 -25
14 -56 16 -70 14 -112 17 -146 17 -225 0 -49 -1 -112 -1 -140 -1 -27 0 -68 1
-90 1 -22 -1 -53 -5 -70 -7 -33 -16 -106 -23 -200 -3 -33 -8 -80 -11 -105 -4
-25 -8 -52 -9 -60 -20 -141 -26 -180 -31 -201 -3 -13 -6 -75 -7 -138 -2 -85 2
-118 12 -128 15 -16 41 -1 41 23 0 18 5 18 34 -1 21 -14 23 -13 35 7 6 13 24
30 40 39 26 15 29 15 40 -3 20 -32 27 -13 21 59 -10 108 4 795 21 1068 0 6 -2
26 -5 45 -11 63 -17 114 -22 170 -3 30 -12 91 -20 135 -8 44 -17 96 -20 115
-4 19 -7 40 -8 45 -1 6 -4 15 -8 20 -3 6 -6 51 -7 100 -5 216 -10 376 -16 456
-5 67 -3 94 9 124 31 72 23 172 -24 325 -16 52 -34 120 -40 150 -6 30 -18 82
-26 116 -8 34 -16 83 -19 110 -11 118 -22 209 -25 209 -2 0 -9 36 -15 78 -3
21 -9 46 -14 55 -4 9 -12 37 -16 62 -14 93 -17 107 -40 195 -13 50 -26 126
-29 170 -7 84 -11 120 -20 170 -3 17 -8 57 -12 90 -7 67 -17 93 -46 115 -21
18 -53 149 -63 265 -15 160 -22 190 -54 232 -21 25 -65 152 -57 160 6 6 211 6
256 0 159 -23 189 -24 310 -12 47 4 99 7 115 6 17 -1 93 -4 170 -6 77 -3 158
-6 180 -8 22 -1 65 2 95 8 60 12 67 12 92 1 45 -20 184 36 253 102 63 60 76
86 69 131 -5 33 -44 110 -44 88 0 -4 -9 -3 -19 2 -10 6 -43 13 -73 16 -29 3
-71 8 -93 11 -22 3 -67 7 -100 9 -33 3 -69 7 -80 9 -11 3 -42 8 -70 11 -27 3
-60 8 -72 11 -13 2 -62 7 -110 9 -97 6 -202 14 -248 20 -16 2 -59 7 -94 10
-35 3 -67 8 -71 10 -13 8 -67 16 -145 20 -103 6 -208 15 -215 20 -10 6 -134
18 -215 20 -77 2 -115 8 -134 19 -4 3 -33 8 -62 12 -60 7 -169 32 -274 64 -38
11 -79 23 -90 25 -89 21 -147 38 -173 51 -17 8 -44 16 -60 19 -17 2 -39 8 -50
14 -11 6 -22 8 -25 4 -6 -5 -146 27 -226 53 -24 8 -51 12 -60 9 -15 -4 -233
39 -251 50 -9 6 -122 16 -235 20 -55 3 -121 6 -147 9 -25 2 -48 3 -50 1z
m3016 -559 c15 -3 74 -6 131 -7 56 -1 107 -4 113 -8 16 -10 33 -61 25 -74 -4
-7 -21 -27 -38 -46 -74 -81 -178 -100 -430 -76 -44 4 -88 7 -97 7 -21 -1 -23
11 -6 41 15 27 38 88 38 103 0 5 -9 20 -20 32 -16 17 -33 22 -73 24 l-52 1 45
6 c53 7 323 5 364 -3z m366 -26 c10 -7 12 -12 4 -17 -6 -5 -14 -20 -18 -35 -6
-25 -25 -39 -27 -20 -8 63 -5 82 10 82 9 0 23 -5 31 -10z m-1528 -271 c16 -9
64 -88 56 -93 -2 -2 -27 -16 -56 -32 -33 -17 -65 -44 -83 -70 -30 -44 -79
-203 -73 -239 10 -64 14 -228 5 -214 -15 23 -21 67 -25 184 -3 57 -7 109 -10
114 -4 5 -2 30 4 55 5 24 12 71 14 103 3 32 9 69 14 83 5 14 9 27 9 30 0 7 24
83 30 93 6 10 90 0 115 -14z m107 -191 c6 -18 13 -53 15 -78 3 -25 7 -58 10
-75 3 -16 8 -52 12 -80 4 -27 9 -54 10 -60 5 -18 14 -59 20 -89 2 -16 7 -33
10 -38 3 -4 -3 -8 -14 -8 -25 0 -68 -43 -81 -81 -5 -16 -7 -29 -3 -29 4 0 3
-4 -3 -8 -12 -8 -34 -66 -42 -106 -2 -16 -8 -39 -12 -50 -10 -26 -3 -211 8
-253 1 -2 1 -6 2 -10 1 -5 6 -16 11 -27 6 -10 10 -49 10 -86 0 -37 4 -89 10
-116 5 -27 11 -69 13 -94 2 -25 10 -74 18 -110 7 -35 11 -80 7 -100 -8 -50 -6
-278 4 -321 7 -33 5 -39 -26 -70 -83 -83 -109 -172 -111 -383 0 -102 3 -158
12 -173 15 -29 23 -103 10 -103 -5 0 -9 -7 -9 -15 0 -8 -4 -15 -9 -15 -13 0
-40 -62 -68 -158 -35 -122 -37 -131 -37 -279 -1 -127 -2 -131 -20 -115 -18 17
-51 72 -42 72 3 0 -1 17 -8 38 -14 39 -14 154 -1 242 17 115 64 287 87 317 5
6 8 101 7 210 -2 206 1 245 28 297 28 57 41 66 69 51 44 -22 100 8 70 37 -35
36 -52 276 -31 453 9 76 9 69 -10 145 -33 131 -37 167 -37 329 0 137 7 225 19
244 3 5 -2 16 -10 25 -57 66 -83 270 -62 491 8 87 20 116 76 171 51 51 83 53
98 8z m-302 -550 c-3 -7 -5 -2 -5 12 0 14 2 19 5 13 2 -7 2 -19 0 -25z m83
-61 c0 -12 7 -35 16 -52 13 -24 17 -73 19 -245 2 -118 6 -235 9 -260 7 -57 26
-140 38 -162 5 -11 5 -18 0 -18 -16 0 -51 163 -56 265 -6 104 -14 205 -22 265
-2 19 -7 73 -10 120 -2 47 -7 93 -9 103 -2 9 1 15 6 11 5 -3 9 -15 9 -27z
m-71 -49 c1 -29 -1 -50 -4 -46 -9 8 -10 98 -2 98 2 0 4 -24 6 -52z m15 -173
c13 -123 18 -200 13 -195 -10 10 -18 64 -24 160 -6 99 1 122 11 35z m19 -225
c3 -11 2 -22 -2 -24 -4 -3 -8 6 -9 20 -2 29 4 31 11 4z m14 -146 c-3 -3 -2
-17 3 -30 5 -13 6 -24 1 -24 -5 0 -11 11 -13 25 -5 23 -1 35 10 35 3 0 3 -3
-1 -6z m18 -105 c8 -37 8 -119 1 -126 -3 -3 -6 5 -7 18 -2 63 -8 123 -14 138
-4 11 -3 13 5 5 6 -6 13 -21 15 -35z m82 -71 c-3 -8 -6 -5 -6 6 -1 11 2 17 5
13 3 -3 4 -12 1 -19z m-72 -93 c-2 -36 -10 -39 -13 -5 -1 17 1 30 6 30 4 0 7
-11 7 -25z m72 -248 c1 -57 1 -59 -7 -22 -11 51 -12 85 -2 85 4 0 8 -28 9 -63z
m-213 -110 c13 -29 28 -74 35 -102 7 -27 17 -61 23 -75 5 -13 9 -103 8 -198
-1 -149 -4 -183 -21 -231 -22 -60 -36 -108 -44 -156 -3 -16 -12 -52 -19 -80
-10 -35 -15 -43 -16 -25 -2 31 -4 50 -15 120 -10 63 -9 59 -20 83 -4 10 -5 20
-2 23 2 3 1 22 -4 42 -5 20 -13 71 -19 113 -14 102 -18 119 -32 153 -12 29
-16 162 -9 291 6 91 8 99 34 111 37 17 75 -9 101 -69z"/>
<path d="M6797 2143 c-19 -27 -62 -91 -97 -143 -35 -52 -111 -156 -170 -230
-122 -155 -244 -326 -274 -386 -20 -38 -196 -235 -311 -347 -63 -61 -199 -154
-307 -211 -46 -24 -130 -73 -186 -110 -56 -36 -105 -66 -107 -66 -3 0 -28 -15
-57 -33 -29 -18 -74 -43 -100 -55 -122 -56 -539 -220 -655 -257 -67 -22 -88
-37 -77 -57 8 -13 19 -13 93 0 121 20 435 127 652 222 68 30 124 53 124 50 0
-1 32 17 72 39 39 22 87 49 105 59 85 48 361 222 411 259 190 141 417 355 456
431 12 23 47 72 79 109 120 140 308 412 380 549 40 78 68 190 51 210 -21 25
-47 15 -82 -33z"/>
</g>
</svg>
