<?xml version="1.0" encoding="UTF-8" standalone="no"?>
<!-- Created with Inkscape (http://www.inkscape.org/) -->

<svg
   xmlns:dc="http://purl.org/dc/elements/1.1/"
   xmlns:cc="http://creativecommons.org/ns#"
   xmlns:rdf="http://www.w3.org/1999/02/22-rdf-syntax-ns#"
   xmlns:svg="http://www.w3.org/2000/svg"
   xmlns="http://www.w3.org/2000/svg"
   xmlns:sodipodi="http://sodipodi.sourceforge.net/DTD/sodipodi-0.dtd"
   xmlns:inkscape="http://www.inkscape.org/namespaces/inkscape"
   width="191.1236mm"
   height="183.5222mm"
   viewBox="0 0 191.1236 183.5222"
   version="1.1"
   id="svg8"
   inkscape:version="0.92.4 5da689c313, 2019-01-14"
   sodipodi:docname="technical-point-logo.svg">
  <defs
     id="defs2" />
  <sodipodi:namedview
     id="base"
     pagecolor="#ffffff"
     bordercolor="#666666"
     borderopacity="1.0"
     inkscape:pageopacity="0.0"
     inkscape:pageshadow="2"
     inkscape:zoom="32"
     inkscape:cx="375.05805"
     inkscape:cy="682.30656"
     inkscape:document-units="mm"
     inkscape:current-layer="layer1"
     showgrid="false"
     inkscape:window-width="2560"
     inkscape:window-height="1373"
     inkscape:window-x="0"
     inkscape:window-y="36"
     inkscape:window-maximized="1"
     fit-margin-top="0"
     fit-margin-left="0"
     fit-margin-right="0"
     fit-margin-bottom="0" />
  <metadata
     id="metadata5">
    <rdf:RDF>
      <cc:Work
         rdf:about="">
        <dc:format>image/svg+xml</dc:format>
        <dc:type
           rdf:resource="http://purl.org/dc/dcmitype/StillImage" />
        <dc:title />
      </cc:Work>
    </rdf:RDF>
  </metadata>
  <g
     inkscape:label="Layer 1"
     inkscape:groupmode="layer"
     id="layer1"
     transform="translate(-3.6048392,-30.508008)">
    <path
       style="display:inline;fill:#9a1c7f;fill-opacity:1;stroke:#9a1c7f;stroke-width:0.4;stroke-miterlimit:4;stroke-dasharray:none;stroke-dashoffset:0;stroke-opacity:1"
       d="m 127.77839,203.06437 c -0.1094,-0.12345 -0.14204,-0.58357 -0.1093,-1.54096 0.0367,-1.07484 0.007,-1.40442 -0.13896,-1.5506 -0.12331,-0.1233 -0.15615,-0.29677 -0.0978,-0.51663 0.0483,-0.18205 0.1102,-0.61674 0.13753,-0.96599 0.0273,-0.34925 0.13747,-1.26365 0.24473,-2.032 0.10726,-0.76835 0.22336,-1.68275 0.25801,-2.032 0.0346,-0.34925 0.11298,-0.92075 0.17406,-1.27 0.0611,-0.34925 0.17762,-1.0922 0.25899,-1.651 0.0814,-0.5588 0.23243,-1.41382 0.33569,-1.90002 0.10326,-0.48622 0.21565,-1.57207 0.24976,-2.413 0.0595,-1.46665 0.32235,-3.82607 0.76994,-6.91096 0.16476,-1.13548 0.17719,-1.49696 0.0581,-1.68773 -0.18716,-0.2997 -0.20157,-1.19525 -0.0446,-2.77279 0.066,-0.66358 0.0973,-1.46368 0.0694,-1.778 -0.0279,-0.31433 -0.0476,-0.62865 -0.044,-0.6985 0.0836,-1.5893 0.0585,-3.14123 -0.0519,-3.21334 -0.15339,-0.10022 -0.16319,-0.17005 -0.30643,-2.18418 -0.0571,-0.80328 -0.16502,-1.57481 -0.23977,-1.7145 -0.197,-0.36817 -0.94038,-3.45617 -0.94425,-3.92238 -0.003,-0.41528 -0.18212,-1.12438 -0.38191,-1.51564 -0.11384,-0.22295 -0.21531,-0.94998 -0.49063,-3.51546 -0.0712,-0.66358 -0.1539,-3.08356 -0.18375,-5.37775 -0.0331,-2.54204 -0.10444,-4.23169 -0.18271,-4.326 -0.0797,-0.096 -0.10257,-0.74338 -0.0603,-1.70543 0.0546,-1.24366 0.0349,-1.54381 -0.0994,-1.516 -0.1111,0.023 -0.15929,-0.0843 -0.14308,-0.31846 0.0186,-0.26843 -0.0271,-0.34459 -0.1905,-0.3175 -0.2228,0.0369 -0.2539,-0.16437 -0.0879,-0.56905 0.0702,-0.17121 0.044,-0.20537 -0.11182,-0.14558 -0.28973,0.11118 -0.38936,-0.24885 -0.16734,-0.60472 0.10157,-0.16281 0.21708,-0.47319 0.25667,-0.68974 0.0396,-0.21655 0.21174,-0.70233 0.38254,-1.0795 0.55985,-1.23635 1.08386,-2.6273 1.17596,-3.12154 0.0497,-0.26688 0.22228,-0.86348 0.38344,-1.32578 0.25243,-0.72412 0.2823,-0.99237 0.21565,-1.93675 -0.0426,-0.60291 -0.12602,-1.0962 -0.1855,-1.0962 -0.0595,0 -0.10813,-0.11149 -0.10813,-0.24775 0,-0.65862 -0.27817,-1.50695 -0.51438,-1.56872 -0.22375,-0.0585 -0.24306,-0.17819 -0.22448,-1.39176 0.018,-1.17574 -0.009,-1.35947 -0.23783,-1.60483 -0.26185,-0.28107 -0.31056,-0.62386 -0.48902,-3.44195 -0.0332,-0.52387 -0.14746,-1.92405 -0.25396,-3.1115 -0.1065,-1.18745 -0.21549,-2.70192 -0.2422,-3.3655 -0.0756,-1.87935 -0.42771,-3.31551 -1.15348,-4.70522 -0.2169,-0.41531 -0.3396,-0.95088 -0.43646,-1.905 -0.50752,-4.99952 -0.63335,-5.75178 -0.94224,-5.63325 -0.10147,0.0389 -0.22429,-0.13954 -0.3325,-0.48314 -0.0944,-0.29969 -0.23989,-0.63061 -0.32337,-0.73539 -0.14028,-0.17606 -0.34073,-0.9404 -0.47943,-1.82804 -0.0316,-0.20216 -0.0148,-0.51648 0.0372,-0.6985 0.052,-0.18203 0.0183,-0.90246 -0.075,-1.60096 -0.11085,-0.830087 -0.16271,-2.435738 -0.1497,-4.635485 0.0109,-1.85102 -0.0232,-3.49565 -0.0758,-3.65473 -0.0526,-0.15908 -0.28122,-0.49175 -0.50798,-0.73927 l -0.41229,-0.45004 -0.4353,0.24907 c -0.23941,0.13699 -0.64281,0.31469 -0.89644,0.39489 -0.38158,0.12065 -0.53288,0.28194 -0.87683,0.9347 -0.22863,0.43388 -0.5114,0.93176 -0.62839,1.10638 -0.35109,0.52408 -0.61316,1.61758 -0.82178,3.429 -0.10861,0.942977 -0.26214,1.974141 -0.34119,2.291498 -0.11731,0.470937 -0.10319,0.762747 0.0768,1.587497 0.12129,0.55577 0.26841,1.26767 0.32695,1.58199 0.17589,0.94452 0.27338,1.27 0.3804,1.27 0.0559,0 0.20016,0.25785 0.32052,0.573 0.18914,0.49527 0.20469,0.80106 0.11457,2.25425 -0.0573,0.92469 -0.0945,2.02415 -0.0825,2.44325 0.0647,2.26607 0.87418,6.5225 1.32597,6.97243 0.20719,0.20633 0.21323,0.44644 0.0266,1.05626 -0.026,0.0851 0.0119,0.19132 0.0844,0.2361 0.0742,0.0459 0.095,0.22798 0.0476,0.41682 -0.4204,1.67479 -0.59055,3.46903 -0.51355,5.41539 0.0841,2.12698 0.28443,3.6195 0.4857,3.6195 0.0653,0 0.0857,-0.0857 0.0455,-0.1905 -0.13886,-0.36187 0.29116,-0.19483 0.49043,0.1905 0.10836,0.20955 0.27685,0.381 0.37441,0.381 0.0976,0 0.24642,0.21432 0.33079,0.47625 0.0844,0.26194 0.20948,0.54695 0.27803,0.63336 0.23305,0.29376 -0.0214,0.76525 -0.63071,1.16887 -0.89872,0.59529 -1.07802,0.61309 -2.07615,0.20611 -0.13522,-0.0551 -0.24556,0.0194 -0.34198,0.23102 -0.10036,0.22028 -0.21461,0.29352 -0.38737,0.24834 -0.20415,-0.0534 -0.30833,0.0913 -0.62447,0.86724 -0.2087,0.51222 -0.45304,1.21707 -0.54297,1.56632 -0.0899,0.34925 -0.21225,0.68929 -0.27181,0.75565 -0.16653,0.18556 -0.12896,0.32385 0.088,0.32385 0.15076,0 0.18042,0.0957 0.12795,0.41275 -0.2855,1.72513 -0.33327,3.22413 -0.19093,5.99073 0.083,1.61206 0.19933,3.02379 0.25863,3.13717 0.28147,0.53823 0.37796,1.42761 0.22771,2.09898 -0.0836,0.37365 -0.20131,0.67937 -0.26155,0.67937 -0.0602,0 -0.17509,0.15716 -0.25524,0.34925 -0.0801,0.19208 -0.30583,0.69215 -0.5015,1.11125 -0.67568,1.44718 -1.25521,3.96323 -1.43337,6.223 -0.34949,4.43282 -0.30424,7.96591 0.12076,9.42786 0.16433,0.56526 0.17294,0.72601 0.0432,0.80621 -0.13096,0.0809 -0.13144,0.2197 -0.003,0.72277 0.0878,0.34243 0.17733,0.76043 0.19904,0.92888 0.13877,1.07676 0.98754,2.55073 1.8929,3.28721 0.7871,0.64028 2.43294,1.20163 3.16198,1.07846 0.76421,-0.12912 1.39749,0.0388 1.90724,0.50583 0.25472,0.23335 0.4348,0.45261 0.40018,0.48723 -0.0346,0.0346 0.0309,0.42524 0.14567,0.86805 0.20385,0.7867 0.18054,1.86984 -0.0482,2.23997 -0.18007,0.29135 -0.91497,0.27027 -1.59359,-0.0457 -0.35645,-0.16597 -0.77136,-0.30233 -0.92202,-0.30301 -0.15067,-0.001 -0.76503,-0.2478 -1.36525,-0.54915 l -1.09131,-0.5479 -0.005,1.53215 c -0.004,1.24021 -0.0581,1.68946 -0.28575,2.35766 l -0.28125,0.8255 -0.66396,0.0164 c -0.95422,0.0235 -0.97883,-0.0351 -0.79188,-1.88641 0.18825,-1.86411 0.18024,-2.1022 -0.10312,-3.06613 -0.20591,-0.7005 -0.28555,-0.79767 -1.32813,-1.62042 -0.60999,-0.48138 -1.20235,-1.01758 -1.31635,-1.19157 -0.34733,-0.53009 -0.47612,-0.38746 -0.37374,0.41391 0.12407,0.97106 0.0907,1.95486 -0.12564,3.70116 -0.0986,0.79581 -0.15492,1.48624 -0.12521,1.53431 0.072,0.11647 -0.40663,2.44249 -0.59455,2.88949 -0.0815,0.19375 -0.1607,0.43801 -0.17608,0.54279 -0.0154,0.10477 -0.14525,0.6477 -0.28859,1.2065 -0.44193,1.72282 -0.51049,2.01532 -0.59327,2.53121 -0.0528,0.32898 -0.11522,0.4424 -0.18307,0.33261 -0.12073,-0.19534 -0.31902,0.75215 -0.27049,1.29248 0.0171,0.19048 -0.0658,0.47623 -0.18429,0.635 -0.14319,0.19194 -0.1902,0.21421 -0.14025,0.0665 0.0413,-0.12224 0.0125,-0.22225 -0.0641,-0.22225 -0.0901,0 -0.11199,0.17043 -0.062,0.48325 0.0511,0.31938 0.0171,0.56921 -0.10028,0.73674 -0.0977,0.13942 -0.2172,0.46488 -0.26567,0.72325 -0.0514,0.27386 -0.16168,0.46976 -0.2645,0.46976 -0.097,0 -0.17636,0.0572 -0.17636,0.127 0,0.0699 0.0532,0.127 0.11813,0.127 0.0706,0 0.0746,0.15184 0.01,0.37773 -0.0658,0.22934 -0.0567,0.51623 0.0231,0.73025 0.11094,0.29758 0.0407,0.59995 -0.4504,1.94002 -0.32,0.87312 -0.72568,2.07327 -0.90151,2.667 -0.3662,1.23653 -0.76823,1.77908 -1.25007,1.68697 -0.28607,-0.0547 -0.30272,-0.0961 -0.2078,-0.51696 0.12619,-0.55952 0.0529,-0.70367 -0.26994,-0.53088 -0.34219,0.18313 -1.33713,-0.37239 -1.01904,-0.56899 0.065,-0.0402 0.15637,-0.25814 0.20301,-0.48435 0.0466,-0.22621 0.32988,-1.03994 0.62941,-1.80829 0.29953,-0.76835 0.58566,-1.59703 0.63584,-1.8415 0.0502,-0.24448 0.28113,-1.04458 0.51321,-1.778 0.23207,-0.73343 0.54834,-1.93358 0.70281,-2.667 0.15448,-0.73343 0.3343,-1.47581 0.39961,-1.64972 0.0653,-0.17393 0.20408,-0.774 0.30838,-1.3335 0.1043,-0.55951 0.29452,-1.38876 0.4227,-1.84278 0.12818,-0.45403 0.27352,-1.02553 0.32297,-1.27 0.0494,-0.24448 0.14417,-0.6731 0.21049,-0.9525 0.0663,-0.2794 0.19734,-0.87948 0.29115,-1.3335 0.0938,-0.45403 0.32168,-1.53988 0.5064,-2.413 0.84047,-3.97273 0.85817,-4.09045 0.77964,-5.18518 -0.065,-0.90649 -0.13437,-1.14701 -0.48509,-1.68275 -0.22507,-0.34379 -0.45299,-0.62507 -0.5065,-0.62507 -0.0535,0 -0.0973,-0.0857 -0.0973,-0.1905 0,-0.10478 -0.0432,-0.1905 -0.096,-0.1905 -0.0528,0 -0.17608,-0.18574 -0.27395,-0.41275 -0.0979,-0.22702 -0.27262,-0.55563 -0.38834,-0.73025 -0.11571,-0.17463 -0.29007,-0.57468 -0.38747,-0.889 -0.0974,-0.31433 -0.21613,-0.60008 -0.26383,-0.635 -0.2702,-0.1978 -0.54153,-1.62377 -0.62831,-3.302 -0.21783,-4.21267 -0.40365,-6.5868 -0.57464,-7.34213 -0.0998,-0.4409 -0.18146,-0.9362 -0.18146,-1.10067 0,-0.16447 -0.0469,-0.31809 -0.10434,-0.34137 -0.0574,-0.0233 -0.23209,-0.98531 -0.38823,-2.13783 -0.31027,-2.29016 -0.48157,-3.25081 -0.97377,-5.461 -0.34078,-1.53027 -0.58577,-2.85059 -0.8837,-4.7625 -0.098,-0.62865 -0.26866,-1.51448 -0.37932,-1.9685 -0.37231,-1.5275 -0.46728,-2.21894 -0.39976,-2.91063 0.037,-0.37847 0.009,-0.79766 -0.0631,-0.93154 -0.0787,-0.14708 -0.13324,-1.5333 -0.13778,-3.50287 -0.008,-3.3873 0.0513,-3.902 0.56364,-4.91047 0.14195,-0.2794 0.29865,-0.59372 0.34822,-0.6985 0.17489,-0.36966 1.30384,-0.88289 1.94901,-0.88603 0.77455,-0.004 2.84523,1.01503 3.45363,1.69921 0.0699,0.0786 0.28864,0.2463 0.48621,0.37277 0.20092,0.12863 0.33053,0.30469 0.29413,0.39955 -0.0358,0.0933 0.13379,0.38905 0.37686,0.65729 0.30599,0.33769 0.42204,0.40958 0.37725,0.23371 -0.0356,-0.1397 -0.0941,-0.56832 -0.13012,-0.9525 -0.3593,-3.83483 -0.45986,-5.28032 -0.47709,-6.858 -0.0111,-1.01282 -0.0648,-1.90179 -0.11944,-1.97549 -0.10326,-0.13931 -0.32775,-1.47861 -0.41394,-2.46951 -0.0273,-0.31432 -0.17658,-1.2573 -0.33165,-2.0955 -0.15507,-0.8382 -0.29695,-2.06692 -0.31529,-2.7305 -0.0183,-0.66357 -0.12697,-1.97726 -0.24143,-2.9193 -0.11446,-0.94204 -0.18467,-1.77388 -0.15602,-1.84852 0.0286,-0.0747 -0.002,-0.61834 -0.0683,-1.2082 -0.0662,-0.58986 -0.16613,-2.0726 -0.22198,-3.29498 -0.0559,-1.222361 -0.19366,-2.851135 -0.30623,-3.619485 -0.40551,-2.76786 -0.60917,-4.63538 -0.75608,-6.93303 -0.18146,-2.83813 -0.17544,-6.90109 0.0111,-7.49336 0.075,-0.23794 0.19853,-0.67438 0.27463,-0.96987 0.14886,-0.578 0.8035,-1.30266 1.17767,-1.30365 0.12224,-3.8e-4 0.22805,-0.0435 0.23513,-0.0958 0.007,-0.0524 0.0316,-0.32385 0.0545,-0.60325 0.21024,-2.56514 0.9219,-5.08308 1.67734,-5.9346 0.16195,-0.18255 0.16512,-0.22955 0.0188,-0.27856 -0.20606,-0.069 -1.60202,-0.29566 -2.77954,-0.45131 -1.0885,-0.14388 -2.66952,-0.56362 -2.7768,-0.73721 -0.0574,-0.0928 -0.35461,-0.0252 -0.90848,0.20651 -0.45277,0.18945 -1.0804,0.42095 -1.39472,0.51445 -0.31433,0.0935 -0.82868,0.2506 -1.143,0.3491 -0.31433,0.0985 -1.2499,0.23468 -2.07905,0.30262 -0.829147,0.0679 -1.886424,0.18438 -2.349498,0.25877 -1.238416,0.19896 -4.20745,0.28652 -4.20745,0.12409 0,-0.18927 -0.765504,-0.1621 -1.154701,0.041 -0.285373,0.14892 -0.42909,0.13946 -1.0795,-0.0711 -1.478534,-0.47854 -5.594813,-0.0663 -6.912941,0.69231 -0.431435,0.2483 -0.515466,0.25865 -0.811904,0.1 -0.280598,-0.15017 -0.623689,-0.15173 -2.266059,-0.0103 -1.064468,0.0917 -2.706921,0.16058 -3.649897,0.15315 -0.942975,-0.007 -2.03903,-0.0153 -2.435678,-0.0175 -0.807967,-0.004 -1.14085,-0.21553 -1.026923,-0.65119 0.08417,-0.32185 -0.11435,-0.28483 -1.236399,0.23057 -0.384175,0.17647 -0.841375,0.33798 -1.016,0.35891 -0.657838,0.0789 -1.833382,0.69782 -2.630843,1.38521 -0.33995,0.29302 -0.523563,0.40467 -1.367541,0.83154 -0.99189,0.50167 -1.62504,0.98293 -1.518962,1.15457 0.03924,0.0635 0.007,0.11543 -0.07163,0.11543 -0.07863,0 -0.324894,0.13313 -0.547246,0.29586 -2.146703,1.57102 -3.018258,2.28878 -4.247261,3.49778 -0.786492,0.77369 -1.790313,1.67967 -2.230713,2.01328 -0.440402,0.33362 -1.182252,0.94588 -1.648558,1.36058 -0.892052,0.79334 -1.280897,0.96425 -1.412651,0.6209 -0.111631,-0.29091 0.157404,-1.06116 0.502412,-1.4384 0.159703,-0.17463 0.376183,-0.51753 0.481068,-0.762 0.104885,-0.24448 0.324514,-0.59686 0.488063,-0.78308 0.549628,-0.62581 0.741863,-0.8704 0.741863,-0.9439 0,-0.14893 1.354524,-1.40821 1.967512,-1.82916 0.348707,-0.23947 0.960406,-0.73546 1.359333,-1.1022 0.398928,-0.36675 1.028022,-0.84265 1.397988,-1.05757 1.907508,-1.10808 4.680318,-3.43775 3.107561,-2.61092 -0.291441,0.15322 -0.758493,0.36888 -1.037893,0.47925 -0.418002,0.16513 -1.928005,0.85919 -3.619501,1.66367 -0.174625,0.083 -0.346075,0.1869 -0.381,0.23079 -0.118651,0.14907 -3.744021,1.40759 -4.216527,1.46373 -0.417523,0.0496 -0.491673,0.014 -0.663806,-0.31889 -0.190364,-0.36812 -0.184835,-0.38367 0.313638,-0.88215 0.344585,-0.34458 0.932662,-0.69365 1.832557,-1.08775 0.728826,-0.31919 1.589391,-0.78205 1.912366,-1.02858 0.322975,-0.24653 0.644544,-0.44824 0.714597,-0.44824 0.170083,0 2.797367,-1.29567 2.985633,-1.47239 0.08137,-0.0764 1.167225,-0.46848 2.413,-0.87133 1.245774,-0.40284 2.480512,-0.81183 2.743863,-0.90886 0.263351,-0.097 0.591964,-0.17642 0.73025,-0.17642 0.138287,0 0.25143,-0.0361 0.25143,-0.0803 0,-0.11947 -0.540526,-0.98714 -0.670893,-1.07694 -0.06204,-0.0427 -0.105683,-0.11516 -0.09698,-0.16095 0.0087,-0.0458 -0.109267,-0.35372 -0.262147,-0.6843 -0.963925,-2.08433 -0.977422,-3.25274 -0.0304,-2.63223 l 0.300784,0.19708 -0.07619,-0.62554 c -0.09233,-0.75805 0.07534,-1.12811 0.511121,-1.12811 0.270295,0 0.358589,0.10757 0.585012,0.71274 0.235895,0.63049 0.421827,0.89803 0.6287,0.90465 0.07065,0.002 -0.06739,-1.70998 -0.19549,-2.42499 -0.06921,-0.3863 -0.04317,-0.46854 0.165646,-0.52315 0.411348,-0.10757 0.637189,0.12286 0.855114,0.8725 0.143231,0.4927 0.184545,0.954 0.133509,1.49074 -0.105899,1.11372 0.09879,2.53448 0.523485,3.63354 0.354076,0.91631 0.402831,0.97538 1.326014,1.60654 1.089651,0.74497 2.557042,1.23774 3.371315,1.13212 0.268349,-0.0348 1.745208,-0.0941 3.281908,-0.13186 2.795651,-0.0686 3.380431,-0.15024 4.6355,-0.64698 0.420842,-0.16656 0.984228,-0.23319 2.137129,-0.25274 1.437048,-0.0244 1.581177,-0.0488 1.75494,-0.29683 0.104121,-0.14866 0.239038,-0.23955 0.299815,-0.20199 0.06078,0.0376 0.156881,-0.0117 0.213561,-0.10959 0.08581,-0.14812 0.251791,-0.12609 0.992055,0.13168 0.822751,0.2865 1.120873,0.31422 4.000501,0.37202 1.711325,0.0343 3.268092,0.11359 3.459484,0.1761 0.19139,0.0625 0.47714,0.0822 0.635,0.0437 0.157858,-0.0385 0.772788,-0.14971 1.366515,-0.24715 2.59234,-0.42544 3.48279,-0.68237 4.55241,-1.31357 1.04558,-0.61701 1.5436,-0.76221 1.5436,-0.45004 0,0.18682 0.0823,0.20635 0.56473,0.134 0.47635,-0.0714 0.60749,-0.0419 0.83793,0.18851 0.33456,0.33456 0.57906,0.40736 2.971,0.8846 2.11229,0.42144 3.37707,0.57946 4.32584,0.54047 4.27022,-0.17553 6.71705,-0.0437 10.24103,0.55181 0.36102,0.061 0.54627,0.0158 0.84729,-0.20675 l 0.38525,-0.28483 0.42271,0.25506 c 0.2325,0.14029 0.62274,0.29 0.86722,0.33269 0.8139,0.14214 5.35219,0.11289 5.50053,-0.0354 0.0761,-0.076 0.22846,-0.13826 0.3387,-0.13826 0.51816,0 1.99786,-0.87328 2.49844,-1.4745 0.67906,-0.81559 1.31473,-1.85111 1.22522,-1.99593 -0.0392,-0.0634 -0.50661,-0.31618 -1.03879,-0.56182 -0.88267,-0.40741 -1.10853,-0.45487 -2.57306,-0.54067 -0.883,-0.0517 -1.6624,-0.12924 -1.732,-0.17225 -0.0696,-0.043 -0.97591,-0.14108 -2.01404,-0.21793 -1.03813,-0.0769 -2.03038,-0.15494 -2.205,-0.17355 -0.17463,-0.0186 -1.5748,-0.0755 -3.1115,-0.12646 -1.64293,-0.0545 -3.08447,-0.16537 -3.49906,-0.26921 -0.69428,-0.17388 -2.28819,-0.44828 -2.66044,-0.458 -0.10478,-0.003 -0.6477,-0.0802 -1.2065,-0.17209 -0.5588,-0.0919 -1.70568,-0.17069 -2.54863,-0.17506 -0.84294,-0.004 -1.98594,-0.0947 -2.54,-0.20072 -0.55405,-0.10603 -1.30326,-0.19278 -1.66491,-0.19279 -0.5349,-2e-5 -0.7007,-0.0546 -0.889,-0.29276 -0.1273,-0.161 -0.5044,-0.36887 -0.83799,-0.46192 -0.65037,-0.18142 -0.75724,-0.27857 -0.80563,-0.73238 -0.0462,-0.43356 0.35996,-0.60473 1.01417,-0.4274 0.28874,0.0783 0.95361,0.22227 1.47749,0.32002 0.52387,0.0977 1.32397,0.26515 1.778,0.372 0.94436,0.22226 3.83843,0.46515 5.5245,0.46366 0.69737,-6.4e-4 2.0095,0.14781 3.3655,0.38071 2.36453,0.40612 5.9257,0.70522 7.8105,0.65599 0.62865,-0.0164 1.68592,0.032 2.3495,0.10751 0.66357,0.0756 1.4351,0.16329 1.7145,0.19498 0.2794,0.0317 0.69899,0.0928 0.93243,0.13592 l 0.42442,0.0783 -0.36092,-0.36558 c -0.32367,-0.32783 -0.54449,-0.39614 -2.13893,-0.66164 -0.9779,-0.16285 -2.06375,-0.38018 -2.413,-0.48297 -0.35844,-0.10549 -1.38171,-0.21092 -2.3495,-0.24207 -5.05228,-0.1626 -6.19755,-0.26256 -7.8105,-0.68175 -0.60042,-0.15603 -1.61341,-0.29049 -2.4765,-0.32871 -2.41983,-0.10715 -4.43393,-0.50223 -4.8209,-0.94566 -0.11069,-0.12683 -0.47127,-0.26098 -0.8306,-0.30901 -0.34925,-0.0467 -1.00648,-0.16699 -1.4605,-0.26735 -0.45403,-0.10036 -1.2827,-0.2784 -1.8415,-0.39563 -0.5588,-0.11724 -1.2446,-0.28481 -1.524,-0.37239 -0.68211,-0.21379 -1.53228,-0.46231 -3.8735,-1.13226 -1.08268,-0.30982 -2.45428,-0.70534 -3.047997,-0.87893 -0.593731,-0.1736 -1.677518,-0.46708 -2.408421,-0.65219 -1.17328,-0.29714 -3.490901,-1.11579 -4.6697,-1.64947 -0.53019,-0.24003 -3.045419,-0.74121 -3.275934,-0.65275 -0.09713,0.0373 -1.19334,-0.13192 -2.436025,-0.37597 -1.242685,-0.24406 -3.488152,-0.67631 -4.989927,-0.96056 -1.501775,-0.28425 -2.9591,-0.56599 -3.2385,-0.6261 -2.014628,-0.43343 -4.241496,-0.74296 -5.461001,-0.75908 -1.7645,-0.0233 -5.134932,0.52102 -6.03962,0.97542 -0.330697,0.1661 -0.670055,0.302 -0.754131,0.302 -0.08407,0 -0.332949,0.0802 -0.553056,0.1782 -0.220106,0.098 -0.828818,0.33534 -1.352693,0.52739 -1.45158,0.53214 -3.672785,1.44635 -4.372452,1.79963 -1.297974,0.65539 -1.977549,0.77177 -1.977549,0.33869 0,-0.26448 -0.08091,-0.24085 -2.052217,0.59931 -1.001705,0.42692 -1.977606,0.79265 -2.168667,0.81272 -0.191062,0.0201 -0.533962,0.15572 -0.762,0.30144 -0.600342,0.38362 -1.788317,0.95056 -2.954616,1.41003 -0.5588,0.22015 -1.444625,0.63065 -1.9685,0.91224 -2.626851,1.41195 -7.815249,3.18492 -9.365403,3.20033 -1.071332,0.0106 -1.214734,-0.0846 -1.447626,-0.96205 -0.201852,-0.76047 -0.03671,-0.97035 1.254583,-1.5945 0.814018,-0.39345 0.910733,-0.47738 0.846244,-0.73432 -0.08602,-0.34272 0.323611,-0.82011 0.703706,-0.82011 0.135577,0 0.280865,-0.0556 0.322863,-0.12355 0.042,-0.0679 0.316831,-0.18674 0.610744,-0.26397 0.293914,-0.0772 1.363063,-0.50079 2.375888,-0.94125 1.012825,-0.44045 2.727326,-1.15783 3.810001,-1.59418 2.969773,-1.19691 4.602142,-1.89595 4.937322,-2.11433 0.909984,-0.59287 6.870211,-2.47874 9.540679,-3.01875 0.523875,-0.10593 1.919088,-0.45121 3.100474,-0.76729 2.419084,-0.64722 2.274928,-0.61742 2.170669,-0.44872 -0.05048,0.0817 0.259374,0.0974 0.881505,0.0449 0.694746,-0.0587 0.959352,-0.0401 0.959352,0.0677 0,0.10957 0.588439,0.13849 2.232055,0.10972 1.227629,-0.0215 2.259702,0.006 2.293494,0.0603 0.03379,0.0547 0.358107,0.10068 0.720697,0.10224 1.114942,0.005 3.923424,0.34121 4.009384,0.4803 0.04468,0.0723 1.003577,0.30492 2.130885,0.51695 1.127308,0.21204 2.396561,0.50239 2.820562,0.64522 0.919015,0.30959 1.205327,0.32316 1.459352,0.0691 0.169428,-0.16943 0.300768,-0.15619 1.183822,0.11932 1.668012,0.52042 2.243025,0.68289 2.739501,0.77406 0.261937,0.0481 0.47625,0.13682 0.47625,0.19715 0,0.0603 0.171307,0.0754 0.380685,0.0336 0.209376,-0.0419 0.452263,-0.0187 0.53975,0.0514 0.148795,0.11933 2.343768,0.67671 2.587786,0.65714 0.0612,-0.005 -0.003,-0.0607 -0.142721,-0.124 -0.176492,-0.08 -0.09898,-0.0911 0.254,-0.0367 0.2794,0.0431 0.556393,0.16088 0.61554,0.26168 0.06744,0.11494 0.215451,0.1562 0.396924,0.11066 0.16738,-0.042 0.737798,0.0852 1.352962,0.30167 0.584966,0.20587 1.006424,0.38024 0.936574,0.3875 -0.262036,0.0272 0.56376,0.2802 2.286,0.7003 1.971283,0.48085 2.311963,0.57662 3.873503,1.08883 0.59372,0.19475 1.70815,0.49903 2.4765,0.67617 0.76835,0.17714 2.01089,0.48967 2.76121,0.69452 0.75032,0.20484 1.6682,0.3697 2.03975,0.36636 0.79907,-0.007 2.65252,0.39742 2.78408,0.60776 0.0506,0.0809 0.25065,0.12544 0.4445,0.0989 0.28908,-0.0396 0.30683,-0.0285 0.0987,0.0615 -0.43753,0.18919 0.44072,0.2453 1.94529,0.12428 0.864,-0.0695 1.65617,-0.0615 2.18197,0.022 0.45402,0.0721 1.46159,0.18486 2.23903,0.25051 0.77745,0.0656 1.77757,0.20221 2.2225,0.30347 1.00741,0.22929 2.36638,0.34782 4.49478,0.39207 1.57485,0.0327 3.17177,0.24551 4.82319,0.64263 0.4191,0.10079 1.81927,0.27231 3.1115,0.38116 1.29222,0.10885 2.8067,0.28077 3.3655,0.38204 0.57622,0.10442 1.78562,0.18346 2.794,0.1826 1.76425,-10e-4 3.99906,0.23649 7.3025,0.77772 0.87312,0.14305 2.30187,0.30707 3.175,0.3645 0.87312,0.0574 1.84467,0.16248 2.159,0.23346 0.31432,0.071 1.02763,0.13831 1.58514,0.14963 0.56028,0.0114 1.61662,0.16197 2.36187,0.33673 1.45827,0.34195 1.77744,0.57125 1.92704,1.38446 0.0385,0.209 0.14279,0.73718 0.23186,1.17374 l 0.16192,0.79375 -0.58798,0.85725 c -0.92915,1.35463 -2.80217,2.94267 -3.93425,3.33564 -0.50606,0.17566 -1.04423,0.3896 -1.19593,0.47541 -0.49283,0.27877 -1.84522,0.53034 -2.42428,0.45097 -0.3063,-0.042 -0.49049,-0.11738 -0.40931,-0.16755 0.36117,-0.22322 -1.24694,-0.20864 -2.15637,0.0196 -1.22849,0.30825 -3.35838,0.45635 -3.60611,0.25075 -0.0984,-0.0817 -0.65715,-0.17079 -1.24155,-0.19797 -0.5844,-0.0272 -1.91196,-0.0901 -2.95012,-0.13981 -1.36374,-0.0653 -1.91243,-0.0502 -1.97713,0.0545 -0.0659,0.10668 -0.40553,0.11123 -1.28743,0.0173 -0.65883,-0.0702 -1.25502,-0.1329 -1.32487,-0.13935 -0.38847,-0.0359 -2.53097,0.14192 -3.2385,0.26874 -1.42684,0.25573 -3.85328,0.24296 -5.1435,-0.0271 -2.36003,-0.49396 -5.59302,-0.65422 -8.61984,-0.42729 -1.28252,0.0961 -1.45081,0.20313 -0.98405,0.62554 0.13521,0.12237 0.30551,0.55602 0.39302,1.00081 0.0849,0.43167 0.2633,0.99831 0.39639,1.25918 0.13309,0.26087 0.24198,0.59758 0.24198,0.74824 0,0.15065 0.21697,0.48448 0.48216,0.74184 0.97088,0.94221 1.24556,1.88442 1.4267,4.89395 0.0947,1.57267 0.25312,2.75381 0.58783,4.3815 0.25203,1.22562 0.48229,2.37128 0.51168,2.54591 0.17129,1.01751 0.33522,1.4026 0.62844,1.47619 0.33059,0.083 0.97492,0.82916 1.12123,1.29848 0.0511,0.164 0.11025,0.67835 0.13138,1.143 0.0211,0.46466 0.066,0.93055 0.0998,1.03533 0.0337,0.10477 0.12886,0.78305 0.21139,1.50727 0.0825,0.72423 0.19812,1.41003 0.25688,1.524 0.10291,0.19961 0.34258,2.785705 0.47822,5.160215 0.0359,0.62865 0.10316,1.17158 0.14944,1.2065 0.12201,0.0921 0.46582,1.27834 0.77297,2.667 0.14677,0.66358 0.31945,1.4351 0.38374,1.7145 0.0643,0.2794 0.1821,0.9652 0.26181,1.524 0.0797,0.5588 0.31077,1.59889 0.51349,2.3113 0.20272,0.71242 0.43142,1.7697 0.50822,2.34951 0.0768,0.5798 0.19747,1.12587 0.26813,1.21346 0.12144,0.15054 0.30789,1.67082 0.61128,4.98423 0.14656,1.60059 0.41835,3.11867 0.68215,3.81 0.0933,0.24448 0.29724,1.21603 0.45325,2.159 0.156,0.94298 0.32746,1.77165 0.38101,1.84151 0.0536,0.0699 0.25563,0.75565 0.44907,1.524 0.19345,0.76835 0.39402,1.42557 0.44571,1.4605 0.0517,0.0349 0.16249,0.32067 0.24621,0.635 0.0837,0.31432 0.23593,0.86421 0.33823,1.22197 0.24776,0.86637 0.54508,3.62672 0.48043,4.46026 -0.0284,0.36616 -0.25215,1.28599 -0.49723,2.04408 -0.50175,1.55207 -0.51395,1.7032 -0.2555,3.16438 0.19505,1.10275 0.26859,4.22289 0.12495,5.30181 -0.0498,0.37439 -0.0161,0.97379 0.0821,1.4605 0.10932,0.54149 0.16964,1.91783 0.17534,4.0005 0.005,1.91259 0.0648,3.37698 0.14992,3.683 0.19787,0.71175 0.64315,2.80924 0.74086,3.48981 0.0449,0.31285 0.10058,0.59943 0.12371,0.63684 0.0389,0.0629 0.2161,1.10682 0.57608,3.39304 0.0793,0.50363 0.11162,0.96837 0.0718,1.03276 -0.0398,0.0644 0.0635,0.96678 0.22966,2.00531 0.35449,2.21636 0.58706,3.96019 0.57452,4.30783 -0.009,0.24088 -0.012,0.2407 -0.12397,-0.007 -0.0837,-0.18477 -0.10424,-0.0897 -0.0754,0.34892 0.0218,0.33161 0.024,0.61851 0.005,0.63756 -0.0337,0.0337 -0.13058,4.98032 -0.22558,11.52302 -0.0259,1.78117 -0.11207,3.6957 -0.19156,4.2545 -0.0795,0.5588 -0.17844,1.9304 -0.21988,3.048 -0.0658,1.77391 -0.0227,3.10502 0.28364,8.763 0.056,1.0349 0.0437,1.12036 -0.13,0.9036 -0.10553,-0.13167 -0.2294,-0.48956 -0.27524,-0.79531 -0.0927,-0.61827 -0.30806,-0.87677 -0.30806,-0.36978 0,0.24032 -0.0662,0.32499 -0.254,0.32499 -0.14111,0 -0.254,0.0847 -0.254,0.1905 0,0.17161 -0.15043,0.24673 -0.41205,0.20578 -0.13402,-0.021 -0.73095,0.51477 -0.73095,0.65604 0,0.0646 -0.13401,0.27677 -0.2978,0.47143 l -0.2978,0.35391 -0.45191,-0.25827 c -0.31064,-0.17753 -0.47889,-0.3817 -0.53819,-0.65309 l -0.0863,-0.3948 -0.12958,0.3175 c -0.0713,0.17462 -0.18086,0.41674 -0.24352,0.53802 -0.0627,0.1213 -0.11482,0.32132 -0.11589,0.4445 -0.004,0.48383 -0.56792,0.80133 -0.85252,0.48016 z m -15.29402,-41.53405 c -0.28341,-3.01491 -0.017,-7.32145 0.52629,-8.50613 0.0641,-0.1397 0.18079,-0.51118 0.25939,-0.8255 0.77563,-3.10164 1.25193,-4.33137 1.90198,-4.91056 0.206,-0.18355 0.41106,-0.45392 0.45571,-0.60083 0.0446,-0.14691 0.1565,-0.35334 0.24859,-0.45873 0.21094,-0.24139 0.024,-1.96721 -0.24627,-2.27392 -0.0976,-0.11081 -0.21909,-0.45864 -0.26985,-0.77296 -0.0508,-0.31433 -0.11572,-0.6858 -0.14435,-0.8255 -0.0602,-0.29393 -0.0435,-5.24969 0.0212,-6.2865 0.1199,-1.92056 0.64661,-3.95773 1.28814,-4.98223 0.16316,-0.26055 0.29665,-0.50424 0.29665,-0.54153 0,-0.13205 0.57293,-0.95012 0.66649,-0.95167 0.17875,-0.003 1.07087,-0.95355 1.33888,-1.42664 0.24488,-0.43227 0.25329,-0.51892 0.0986,-1.016 -0.093,-0.29889 -0.24211,-0.78618 -0.33127,-1.08287 -0.21226,-0.70626 -0.0667,-6.96641 0.19759,-8.49911 0.0663,-0.38431 -0.21444,-1.98235 -0.44239,-2.51846 -0.0594,-0.1397 -0.22844,-1.22555 -0.37563,-2.413 -0.1472,-1.18745 -0.32161,-2.5019 -0.38758,-2.921 -0.21482,-1.36474 -0.28434,-3.03118 -0.15051,-3.60796 0.11716,-0.50492 0.1,-0.59922 -0.17458,-0.95921 -0.49264,-0.64588 -0.65561,-1.67814 -0.77271,-4.89433 -0.063,-1.730001 -0.0387,-2.106958 0.20011,-3.111485 0.34845,-1.46545 0.59741,-2.25682 0.95889,-3.048 0.31226,-0.68343 0.69698,-1.84826 0.69999,-2.11936 0.001,-0.0916 0.31435,-0.47218 0.6963,-0.84561 l 0.69446,-0.67897 0.63719,0.0876 c 0.59788,0.0822 0.89338,-0.0647 0.46259,-0.23002 -0.1041,-0.04 -0.21121,-0.36597 -0.26526,-0.80734 -0.0498,-0.40719 -0.24959,-1.31184 -0.44386,-2.01034 -0.19427,-0.6985 -0.42117,-1.78435 -0.50422,-2.413 -0.0831,-0.62865 -0.20375,-1.45732 -0.26821,-1.8415 -0.0645,-0.38417 -0.17804,-1.24142 -0.25239,-1.905 -0.14209,-1.26808 -0.32718,-2.24975 -0.53042,-2.8132 -0.16206,-0.44928 -0.72058,-0.97266 -0.83797,-0.78525 -0.0487,0.0778 -0.34574,0.21604 -0.66006,0.30728 -0.62239,0.18067 -1.13107,0.48703 -1.14184,0.68767 -0.004,0.0699 -0.28467,0.37065 -0.62428,0.66844 -0.33961,0.2978 -0.69065,0.72642 -0.78009,0.9525 -0.0894,0.22609 -0.2316,0.49679 -0.31589,0.60156 -0.31245,0.38835 -0.54699,1.48303 -0.55283,2.58019 -0.003,0.61583 -0.0741,1.47308 -0.15743,1.905 -0.34031,1.76437 -0.13733,5.43236 0.41579,7.51376 0.12956,0.48755 0.23557,1.03463 0.23557,1.21575 0,0.18111 0.17145,0.68323 0.381,1.11582 0.20955,0.43259 0.381,0.81801 0.381,0.85648 0,0.0385 0.1502,0.26688 0.33379,0.50757 l 0.33378,0.43762 -0.20291,0.72866 c -0.2519,0.904534 -0.38612,2.564295 -0.36191,4.475135 0.015,1.18657 0.0227,2.35677 0.0236,3.6195 8.8e-4,1.1492 0.13559,3.05026 0.24505,3.45676 0.0779,0.2892 0.17346,0.77273 0.21241,1.07453 0.0389,0.30179 0.20929,0.95836 0.37852,1.45905 0.16923,0.50068 0.3077,1.12987 0.3077,1.3982 0,0.35342 0.0713,0.53243 0.25892,0.64957 0.14241,0.0889 0.22221,0.22113 0.17732,0.29376 -0.23451,0.37943 -0.53392,3.37255 -0.54914,5.48955 -0.009,1.26917 -0.0505,2.67906 -0.0919,3.13308 -0.052,0.57017 -0.0136,1.04155 0.12402,1.524 0.10962,0.38418 0.25895,1.29607 0.33184,2.02642 0.11681,1.17039 0.17381,1.37362 0.48048,1.71328 0.19137,0.21195 0.39081,0.40497 0.4432,0.42892 0.19892,0.0909 0.0807,0.28901 -0.3175,0.53178 -0.70345,0.4289 -1.74625,0.27372 -1.74625,-0.25986 0,-0.23969 -0.31485,-0.35635 -0.40217,-0.14902 -0.0233,0.0553 -0.25715,0.26247 -0.51969,0.46042 -0.81353,0.61336 -1.49922,2.41664 -1.69422,4.45557 -0.0468,0.48895 -0.12553,0.94615 -0.17503,1.016 -0.15252,0.21521 -0.14959,1.31339 0.004,1.60089 0.0801,0.14966 0.17668,0.67936 0.21463,1.17711 0.0915,1.20024 0.0919,1.09653 -0.0139,3.60375 -0.0563,1.33268 -0.0462,2.19075 0.0257,2.19075 0.065,0 -0.0395,0.30392 -0.23226,0.67538 -0.19273,0.37146 -0.53422,1.243 -0.75887,1.93675 -0.22465,0.69375 -0.45699,1.37567 -0.51631,1.51537 -0.0593,0.1397 -0.13743,0.51117 -0.17357,0.8255 -0.0361,0.31432 -0.15292,0.94297 -0.2595,1.397 -0.71467,3.0443 -0.71055,3.01436 -0.91006,6.604 -0.0756,1.35962 -0.0579,1.53067 0.25601,2.4765 0.18545,0.5588 0.3708,1.25238 0.41188,1.54129 0.0414,0.29093 0.21587,0.68755 0.39113,0.889 0.17403,0.20004 0.46395,0.56373 0.64426,0.80821 0.39997,0.5423 0.94667,1.15241 0.99202,1.10706 0.0183,-0.0183 -0.0257,-0.66065 -0.0978,-1.42743 z m -3.91946,-10.33191 c 0.001,-0.16598 0.11254,-0.79463 0.24771,-1.397 0.13516,-0.60237 0.3656,-1.72387 0.51208,-2.49222 0.32772,-1.71905 0.65658,-2.77999 1.22033,-3.937 0.48203,-0.9893 0.49502,-1.1789 0.44347,-6.477 -0.0116,-1.18745 0.0318,-2.55905 0.0964,-3.048 0.0866,-0.65536 0.0761,-0.97245 -0.0397,-1.2065 -0.26598,-0.5374 -0.46731,-1.17148 -0.63589,-2.00277 -0.14756,-0.7276 -0.80105,-2.66734 -1.30996,-3.88832 -0.26936,-0.64627 -0.78986,-1.15433 -1.50802,-1.47201 -0.71824,-0.31771 -0.74838,-0.31755 -1.09355,0.006 -0.15425,0.14449 -0.43631,0.29425 -0.62681,0.33279 -0.26959,0.0545 -0.3598,0.15818 -0.40699,0.46754 -0.0587,0.38511 -0.24398,4.11843 -0.22559,4.54644 0.005,0.11659 -0.0786,0.24566 -0.1859,0.28682 -0.12998,0.0499 -0.16326,0.14859 -0.0998,0.29601 0.0524,0.12165 0.1056,0.7641 0.11829,1.42768 0.0292,1.52897 0.29705,3.45388 0.50355,3.6195 0.20547,0.16479 0.39117,1.02072 0.6475,2.9845 0.23182,1.77597 0.658,4.4846 0.77431,4.92125 0.0425,0.15972 0.0188,0.28575 -0.0538,0.28575 -0.15032,0 -0.0541,0.49002 0.14625,0.74478 0.20582,0.26172 0.56516,2.15915 0.77293,4.08122 0.19917,1.84266 0.4079,2.68534 0.59286,2.39349 0.0596,-0.094 0.10924,-0.30679 0.11031,-0.47277 z m 4.74861,-24.30448 c -0.0453,-0.29686 -0.12554,-0.5969 -0.17834,-0.66675 -0.0528,-0.0699 -0.12893,-0.2413 -0.16919,-0.381 -0.0403,-0.1397 -0.0489,0.007 -0.0192,0.32633 0.0549,0.59054 0.25749,1.26117 0.38096,1.26117 0.0375,0 0.0311,-0.24288 -0.0142,-0.53975 z m 1.65718,-1.50258 c -0.0398,-1.12329 -0.10637,-2.16628 -0.14787,-2.31775 -0.2964,-1.08172 -0.19601,-6.19785 0.1545,-7.87371 0.162,-0.7746 0.17452,-1.03459 0.0566,-1.17663 -0.13706,-0.16514 -0.28434,-0.66077 -0.63804,-2.14708 -0.59349,-2.49388 -0.93839,-10.05067 -0.58198,-12.751034 l 0.17436,-1.321041 -0.37113,-0.74271 c -0.20413,-0.40848 -0.41866,-0.7427 -0.47675,-0.7427 -0.0581,0 -0.17384,-0.41434 -0.25723,-0.92075 -0.0834,-0.50641 -0.26629,-1.46367 -0.40643,-2.12725 -0.14014,-0.66357 -0.30494,-2.03517 -0.36621,-3.048 -0.0613,-1.01282 -0.17078,-2.413 -0.24336,-3.1115 -0.22341,-2.14998 -0.18198,-2.58567 0.45293,-4.7625 0.23429,-0.80328 0.45212,-1.61051 0.48407,-1.79386 0.0319,-0.18334 0.26319,-0.60206 0.51387,-0.93048 0.25069,-0.32841 0.4558,-0.65041 0.4558,-0.71554 0,-0.14039 0.68585,-0.87812 0.81636,-0.87812 0.0497,0 0.32927,-0.16362 0.62125,-0.3636 0.29199,-0.19998 0.65431,-0.40222 0.80517,-0.44942 0.15085,-0.0472 0.34359,-0.16933 0.4283,-0.2714 0.0847,-0.10207 0.31847,-0.18558 0.51947,-0.18558 0.33179,0 0.36545,-0.0402 0.36545,-0.43701 0,-0.24035 -0.0556,-0.47136 -0.12355,-0.51336 -0.0679,-0.042 -0.1874,-0.31346 -0.26543,-0.60326 -0.16494,-0.61253 -1.16019,-1.61786 -1.60378,-1.62002 -0.15304,-7.6e-4 -0.31153,-0.0552 -0.35221,-0.12101 -0.073,-0.11815 -0.44921,-0.18228 -1.87778,-0.3201 -0.64089,-0.0618 -0.73025,-0.0429 -0.73025,0.15469 0,0.12384 -0.11721,0.53867 -0.26047,0.92186 -0.79272,2.12044 -1.29106,4.13665 -1.17244,4.74361 0.0696,0.35617 -0.0439,1.21377 -0.41448,3.1315 -0.20798,1.07632 -0.24048,1.64624 -0.0688,1.20696 0.13928,-0.35642 0.27856,0.79885 0.27292,2.26384 -0.004,1.09834 0.13998,3.29808 0.31025,4.73287 0.066,0.55617 0.14889,0.71026 0.57383,1.06677 0.27317,0.22919 0.47321,0.45469 0.44452,0.50111 -0.085,0.13749 -0.0693,1.07611 0.0573,3.43355 0.17019,3.168744 0.24698,4.075781 0.38169,4.508488 0.0652,0.209547 0.15298,0.952497 0.195,1.650997 0.10545,1.75312 0.17683,2.48157 0.25564,2.60909 0.0699,0.11314 0.1354,1.2366 0.24763,4.24891 0.0752,2.01773 0.2096,3.07509 0.48441,3.81 0.65982,1.76458 0.66151,1.78071 0.66151,6.3228 0,3.28159 -0.0371,4.31376 -0.15779,4.3884 -0.22547,0.13947 -0.0211,2.62036 0.26278,3.18935 0.11688,0.23429 0.21251,0.6077 0.21251,0.8298 0,0.40638 0.0799,0.57315 0.27479,0.57315 0.058,0 0.0729,-0.91905 0.0331,-2.04233 z m -2.04014,-5.86342 c -0.0224,-5.79081 -0.0325,-6.02143 -0.28907,-6.59198 -0.14624,-0.32517 -0.23542,-0.67062 -0.19819,-0.76765 0.0372,-0.097 -0.0196,-0.42395 -0.12637,-0.72649 -0.10674,-0.30253 -0.19439,-0.81434 -0.19478,-1.13734 -3.8e-4,-0.32301 -0.0567,-0.78866 -0.12503,-1.03477 -0.0684,-0.24612 -0.1492,-1.58915 -0.17961,-2.9845 -0.0304,-1.39536 -0.14104,-3.13709 -0.24586,-3.87052 -0.10481,-0.73342 -0.22741,-1.84785 -0.27244,-2.476497 -0.045,-0.628647 -0.13736,-1.600191 -0.2052,-2.158988 -0.0678,-0.5588 -0.15883,-1.92068 -0.20222,-3.02641 -0.0751,-1.91319 -0.093,-2.01964 -0.37007,-2.2012 -0.21638,-0.14178 -0.34504,-0.43283 -0.50077,-1.13284 -0.11528,-0.51813 -0.26209,-0.94205 -0.32626,-0.94205 -0.0642,0 -0.0851,0.12859 -0.0464,0.28575 0.37848,1.53949 0.8492,5.33493 0.67501,5.44259 -0.14376,0.0889 -0.0264,1.34692 0.14684,1.57416 0.0532,0.0699 0.13258,0.312737 0.17628,0.539747 0.0437,0.227017 0.11452,0.584197 0.15737,0.793744 0.0521,0.25464 0.0275,0.380997 -0.0742,0.380997 -0.19361,0 -0.0998,3.944947 0.11625,4.889497 0.0799,0.34925 0.21746,1.3208 0.30572,2.159 0.0883,0.8382 0.2337,1.69545 0.3232,1.905 0.11042,0.25852 0.14223,0.74409 0.099,1.51045 -0.0473,0.83796 -0.005,1.36237 0.16354,2.032 0.18407,0.7308 0.47577,3.96721 0.48771,5.41105 0.001,0.17463 0.032,0.57468 0.0678,0.889 0.0359,0.31433 0.0998,1.22873 0.14198,2.032 0.0422,0.80328 0.13066,1.97485 0.1965,2.6035 0.0658,0.62865 0.15394,1.47162 0.1958,1.87325 0.0418,0.40164 0.0875,0.73025 0.10141,0.73025 0.0139,0 0.0149,-2.70033 0.002,-6.00075 z m -3.55589,-32.651245 c -0.0465,-0.81399 -0.12726,-1.47999 -0.17948,-1.47999 -0.1285,0 -0.11137,0.87001 0.0407,2.06863 0.17758,1.39941 0.23773,1.14421 0.13876,-0.58864 z m -0.0568,-2.6997 c -0.0936,-0.11283 -0.093,-0.23704 0.002,-0.41482 0.18326,-0.34242 0.17455,-1.15947 -0.0123,-1.15947 -0.0815,0 -0.11655,0.0316 -0.0779,0.0703 0.0386,0.0387 -0.0351,0.47973 -0.16379,0.98018 -0.1791,0.69627 -0.19808,0.93268 -0.0808,1.00687 0.22105,0.13988 0.50618,-0.27404 0.33274,-0.48302 z m 38.80947,-12.20357 c 1.52443,-0.18711 1.73755,-0.24748 2.77997,-0.78744 1.10982,-0.57486 1.48249,-0.92959 2.78315,-2.64919 0.40799,-0.53939 -0.22898,-2.29181 -0.84925,-2.33643 -0.14788,-0.0106 -0.32602,-0.0286 -0.39587,-0.04 -0.73738,-0.11989 -2.71865,-0.22719 -3.97486,-0.21528 -0.93107,0.009 -1.86396,-0.0557 -2.30987,-0.15969 -0.56926,-0.13279 -1.51627,-0.16087 -3.96265,-0.11749 -1.76804,0.0314 -3.75755,0.0481 -4.42112,0.0372 -1.99225,-0.0327 -2.28614,-8.8e-4 -2.67866,0.28927 -0.20142,0.14892 -0.35263,0.28359 -0.33603,0.29927 0.0166,0.0157 0.80171,0.0525 1.74469,0.0818 1.68842,0.0525 1.72053,0.059 2.11132,0.42501 0.55154,0.5166 0.7621,0.94178 0.53704,1.0844 -0.0945,0.0599 -0.12576,0.10978 -0.0694,0.11085 0.0564,0.001 0.0135,0.12896 -0.0952,0.2842 -0.10874,0.15524 -0.1977,0.4383 -0.1977,0.62902 0,0.39485 -0.2419,0.99372 -0.40139,0.99372 -0.0586,0 -0.10661,0.0563 -0.10661,0.12509 0,0.0688 -0.17145,0.40374 -0.381,0.7443 -0.20955,0.34056 -0.381,0.6475 -0.381,0.68208 0,0.0346 0.41434,0.0987 0.92075,0.14251 0.50641,0.0438 1.3208,0.13389 1.80975,0.20021 0.48895,0.0663 1.71207,0.15219 2.71805,0.19083 1.00598,0.0386 1.85245,0.0936 1.88104,0.12224 0.11975,0.11975 1.73588,0.0524 3.27491,-0.13653 z m 6.68788,-2.21839 c 0.88255,-0.83972 1.24171,-1.40233 1.15154,-1.80383 -0.0334,-0.14874 0.0932,-0.37073 0.33993,-0.59609 0.21623,-0.1975 0.39315,-0.43456 0.39315,-0.52679 0,-0.27059 -0.95848,-0.60862 -1.72573,-0.60862 h -0.70798 l 0.25402,0.41275 c 0.23173,0.3765 0.32059,1.00176 0.28598,2.01225 -0.006,0.18122 -0.15869,0.49554 -0.33882,0.6985 -0.3458,0.38956 -0.94247,1.26764 -0.94247,1.38694 0,0.15679 0.48962,-0.2132 1.29038,-0.97511 z"
       id="path837"
       inkscape:connector-curvature="0" />
    <path
       style="display:inline;fill:#9a1c7f;fill-opacity:1;stroke:#9a1c7f;stroke-width:0.40000001;stroke-linejoin:miter;stroke-miterlimit:4;stroke-dasharray:none;stroke-dashoffset:0;stroke-opacity:1;paint-order:normal"
       d="m 121.93072,210.49276 c 0.20826,-0.10688 0.88344,-0.32978 1.50041,-0.49527 0.61697,-0.16549 1.22756,-0.3596 1.35686,-0.43138 0.433,-0.24033 3.39228,-1.36456 5.16341,-1.96155 0.96401,-0.32495 1.94205,-0.70314 2.17342,-0.84042 0.23136,-0.13729 0.67306,-0.32746 0.98154,-0.4226 0.30849,-0.0952 1.19188,-0.44096 1.96309,-0.76851 0.77122,-0.32752 2.2225,-0.92332 3.22508,-1.32399 2.52184,-1.00779 3.54277,-1.50784 5.47842,-2.68326 0.92006,-0.55871 2.05143,-1.23086 2.51416,-1.49367 0.46273,-0.26282 1.34612,-0.81358 1.96309,-1.22391 2.45625,-1.63356 3.28087,-2.12013 4.62672,-2.7299 1.90021,-0.86095 5.84077,-3.45001 7.37088,-4.84286 0.42896,-0.39049 0.9848,-0.86772 1.23519,-1.06053 0.25039,-0.1928 0.73762,-0.72915 1.08275,-1.19188 0.34511,-0.46273 1.74535,-1.98033 3.11164,-3.37246 3.19843,-3.25893 3.53583,-3.63858 3.53583,-3.97875 0,-0.39038 0.44305,-1.15052 1.41631,-2.42988 0.45497,-0.59807 0.82722,-1.12412 0.82722,-1.16897 0,-0.104 1.34899,-2.08885 1.81795,-2.67485 0.19552,-0.24429 0.57631,-0.74786 0.84624,-1.11905 0.61971,-0.85216 0.78219,-1.05875 1.47232,-1.87199 0.30849,-0.3635 0.81328,-0.99382 1.12177,-1.4007 0.30848,-0.40689 0.78172,-1.00876 1.05165,-1.33751 1.25301,-1.5261 1.94897,-2.48274 2.84883,-3.91587 0.53496,-0.85196 1.01606,-1.58059 1.0691,-1.61915 0.053,-0.0385 0.54659,-0.7642 1.09677,-1.61254 1.04378,-1.60943 1.89002,-2.59408 2.22947,-2.59408 0.10964,0 0.32987,0.12168 0.48949,0.2704 0.2626,0.24464 0.2769,0.34152 0.15018,1.0166 -0.53471,2.84846 -1.22383,4.36877 -3.77037,8.31812 -2.0063,3.11153 -1.91844,2.9856 -4.85288,6.95515 -0.13675,0.18498 -0.45224,0.62436 -0.70111,0.97644 -0.47592,0.67328 -1.23109,1.57324 -2.80351,3.34107 -0.52187,0.58672 -1.02358,1.27184 -1.11489,1.52248 -0.0913,0.25064 -0.21645,0.45572 -0.27807,0.45572 -0.0616,0 -0.11407,0.11042 -0.11652,0.24538 -0.004,0.26735 -0.0496,0.33428 -0.97071,1.45216 -1.31099,1.591 -6.3848,6.46695 -7.49889,7.20643 -0.42927,0.28495 -0.78051,0.57505 -0.78051,0.64466 0,0.0697 -0.0676,0.1266 -0.15023,0.1266 -0.0826,0 -0.23266,0.0788 -0.33338,0.17528 -0.10069,0.0964 -0.31368,0.26564 -0.47325,0.3761 -0.15955,0.11044 -0.25182,0.26818 -0.20503,0.35055 0.0468,0.0824 0.0348,0.10423 -0.0267,0.0487 -0.0615,-0.0555 -0.28643,0.0233 -0.49985,0.17528 -0.21341,0.15196 -0.42817,0.2763 -0.47722,0.2763 -0.17998,0 -0.90617,0.60868 -0.84475,0.70806 0.0669,0.10831 -0.60657,0.6058 -0.84563,0.62462 -0.29175,0.023 -0.89958,0.39593 -0.82964,0.50909 0.0402,0.0649 -0.0183,0.083 -0.13008,0.0402 -0.11674,-0.0448 -0.29864,0.0585 -0.42793,0.24312 -0.12369,0.1766 -0.22489,0.27649 -0.22489,0.22201 0,-0.17172 -1.00335,0.43591 -2.38375,1.4436 -0.73266,0.53486 -1.41097,0.97343 -1.50737,0.97464 -0.0964,0.001 -0.17528,0.0547 -0.17528,0.1187 0,0.064 -0.17352,0.20463 -0.38561,0.3123 -0.21208,0.10765 -0.60646,0.3284 -0.87638,0.49046 -0.26993,0.16207 -0.90092,0.51778 -1.4022,0.79048 -0.5013,0.27269 -1.58314,0.91037 -2.4041,1.41706 -1.66606,1.02825 -3.13551,1.79166 -3.96957,2.06231 -0.30498,0.0989 -1.31457,0.5407 -2.24353,0.98166 -1.53822,0.73015 -4.09925,1.7204 -11.01371,4.25858 -4.6816,1.71853 -9.20867,2.46049 -9.24571,2.19523 -0.0679,-0.43672 0.009,-0.60091 0.24348,-0.75999 z m 37.66759,-15.91746 c -0.0369,-0.0369 -0.17599,0.0466 -0.30911,0.18564 -0.23127,0.24145 -0.22829,0.24443 0.067,0.067 0.17002,-0.10213 0.27894,-0.21582 0.24205,-0.25271 z m -79.02533,17.30631 c -0.648312,-0.12805 -0.9152,-0.19451 -1.951398,-0.34985 -1.036198,-0.15532 -2.294144,-0.37361 -2.795438,-0.48508 -0.501284,-0.11145 -1.479329,-0.32949 -2.173422,-0.4845 -0.694093,-0.15503 -2.271576,-0.50456 -3.505519,-0.77674 -2.486114,-0.54841 -6.44735,-1.60135 -8.050459,-2.13994 -2.350796,-0.78977 -7.906662,-3.55244 -11.089673,-5.51438 -1.041134,-0.64174 -2.397775,-1.4613 -3.014746,-1.82126 -1.138041,-0.66397 -3.769498,-2.38468 -5.047947,-3.30085 -0.385607,-0.27634 -1.009203,-0.66141 -1.385768,-0.85571 -0.376564,-0.19429 -0.976013,-0.61953 -1.332097,-0.94498 -0.865747,-0.79122 -1.58922,-1.33086 -2.658707,-1.98313 -0.489226,-0.29837 -1.277146,-0.92424 -1.750937,-1.39083 -0.745257,-0.73395 -1.876441,-1.57853 -5.071696,-3.78676 -0.777839,-0.53756 -1.663074,-1.40084 -4.10435,-4.00252 -0.90459,-0.96401 -1.97072,-2.0998 -2.369201,-2.52397 -0.39847,-0.42416 -1.061018,-1.09612 -1.472318,-1.49323 -0.411299,-0.3971 -1.59219,-1.50503 -4.908697,-6.23513 -3.316508,-4.73009 -3.620445,-5.65571 -3.910934,-6.50404 -1.373942,-4.01237 -2.556368,-7.36253 -4.4541167,-12.61987 -1.255363,-3.47775 -2.45573,-8.21189 -3.519828,-13.88185 -0.159201,-0.84833 -0.508295,-2.70976 -0.775741,-4.13651 -0.9502327,-5.06903 -1.4784011,-9.45146 -1.475133,-12.23972 0.00552,-4.74821 0.7108193,-10.66551 1.741629,-14.61257 0.181261,-0.6941 0.401208,-1.64059 0.488753,-2.10333 0.743136,-3.92788 3.017506,-12.246057 4.2173427,-15.424274 0.291151,-0.771214 0.63976,-1.875446 0.774692,-2.453863 0.3114,-1.334825 0.713105,-2.567783 1.054891,-3.23772 0.146867,-0.287893 0.462452,-1.018047 0.701302,-1.622553 0.384801,-0.973915 2.112575,-4.631468 3.003131,-6.357387 1.373843,-2.662505 1.966602,-3.689208 3.195984,-5.535695 1.542671,-2.31702 3.907014,-5.536169 4.794081,-6.527352 0.312604,-0.349285 1.041609,-1.188266 1.620014,-1.86442 0.578416,-0.676137 1.325527,-1.526153 1.660247,-1.888915 0.334719,-0.362752 1.182767,-1.290549 1.884544,-2.061763 1.455768,-1.59981 1.440962,-1.585291 3.124604,-3.06261 0.689191,-0.604727 1.726328,-1.534733 2.304733,-2.066655 3.389455,-3.117063 4.470469,-4.038115 6.239823,-5.316498 1.0797,-0.780091 2.152389,-1.582573 2.383753,-1.783287 0.450053,-0.390443 4.20723,-2.895504 4.907726,-3.272179 0.231364,-0.12441 1.083211,-0.616198 1.89298,-1.092871 0.809781,-0.476663 2.071767,-1.096913 2.804415,-1.378348 1.494709,-0.574166 4.233761,-1.911695 6.029492,-2.944327 0.655538,-0.376962 1.602028,-0.864996 2.103312,-1.084513 0.501294,-0.219518 1.542428,-0.734503 2.313642,-1.144423 3.523151,-1.872609 6.249142,-2.84541 10.011497,-3.572714 2.565973,-0.496017 3.308922,-0.680733 5.623117,-1.398001 2.251901,-0.697957 2.771954,-0.784629 5.893732,-0.982274 1.424289,-0.09021 2.84202,-0.250895 3.150506,-0.357154 0.973231,-0.335216 15.153673,-0.0615 22.505413,0.434508 0.57841,0.03897 2.40829,0.160701 4.06641,0.270394 1.6581,0.109747 3.61418,0.300094 4.34684,0.423091 12.21605,2.050833 15.116,2.744562 19.98146,4.780004 0.84814,0.354814 3.65592,1.429953 3.99629,1.530228 0.68467,0.201719 5.92236,2.549754 6.73059,3.017296 0.40848,0.2363 2.51928,1.262407 2.59688,1.262407 0.11617,0 0.97107,0.613692 1.02549,0.736159 0.0257,0.05786 0.1071,0.10522 0.18082,0.10522 0.12531,0 1.80533,1.062896 3.90895,2.473042 0.7665,0.513815 1.90212,1.377818 4.53678,3.451716 0.22014,0.173288 0.47254,0.380241 0.56088,0.459902 0.0883,0.0796 0.38147,0.298228 0.6514,0.485716 0.77358,0.537321 2.67507,2.112541 3.33955,2.766533 0.33289,0.327631 0.8931,0.831575 1.24492,1.119856 0.66755,0.547004 3.47241,3.386198 4.54183,4.597408 0.34047,0.385607 0.65222,0.732657 0.69277,0.771213 0.0405,0.03853 0.28948,0.354062 0.55316,0.701103 0.26369,0.347052 0.58699,0.73797 0.71844,0.868709 0.42832,0.426005 1.45857,1.842465 2.12185,2.917252 0.54313,0.880124 1.47878,2.19205 2.07085,2.903664 0.0775,0.09319 0.14091,0.227389 0.14091,0.298329 0,0.07088 0.10025,0.212139 0.2227,0.313793 0.1225,0.101688 0.50568,0.724599 0.85154,1.384324 0.70689,1.34838 1.2462,2.306521 2.11118,3.750814 0.32524,0.543064 1.03029,1.846807 1.56678,2.897206 0.53649,1.050397 1.09901,2.084067 1.25004,2.297048 0.30763,0.433778 1.28632,2.477965 2.19941,4.593853 0.33281,0.771215 0.92006,2.064753 1.30501,2.874526 1.50785,3.17198 3.39446,9.468729 4.0962,13.671523 0.0901,0.53985 0.28309,1.517889 0.42877,2.173419 0.26571,1.1955 0.59463,3.06518 0.83872,4.76751 0.26145,1.82341 0.70304,4.54111 0.97969,6.0295 0.5115,2.75169 0.71568,11.85699 0.36196,16.14085 -0.12983,1.57249 -0.30173,3.31686 -0.38197,3.87635 -0.0803,0.55951 -0.13162,1.91615 -0.11416,3.01475 0.0175,1.09861 -0.009,2.21832 -0.0582,2.48824 -0.0495,0.26993 -0.24942,1.50037 -0.44437,2.73431 -0.38518,2.43798 -0.53372,3.06603 -0.93083,3.93539 -0.14324,0.31355 -0.26042,0.70558 -0.26042,0.87119 0,0.16559 -0.1262,0.62125 -0.28044,1.01257 -0.15424,0.39131 -0.28044,0.89394 -0.28044,1.11694 0,0.66627 -0.39649,0.94275 -1.08671,0.75777 -0.3704,-0.0993 -0.38862,-0.3209 -0.0955,-1.16252 0.21116,-0.60641 0.39077,-1.76628 0.35997,-2.32473 -0.009,-0.15424 0.0469,-0.59594 0.12313,-0.98154 0.29778,-1.50635 0.43528,-4.57508 0.2084,-4.65065 -0.15131,-0.0505 -0.17443,-6.91576 -0.0241,-7.15899 0.0464,-0.0751 0.11935,-0.66666 0.16213,-1.31467 0.0427,-0.64801 0.14542,-1.683 0.22807,-2.29997 0.17411,-1.29941 0.0876,-10.20967 -0.12262,-12.61989 -0.15037,-1.7246 -0.37836,-3.33511 -0.66501,-4.69739 -0.10544,-0.50128 -0.32689,-1.82637 -0.49204,-2.94464 -0.16517,-1.11826 -0.51609,-3.16899 -0.77983,-4.55718 -0.26374,-1.38818 -0.60174,-3.22209 -0.75111,-4.075356 -0.76273,-4.357231 -2.47876,-9.907478 -3.94242,-12.751131 -0.35725,-0.694092 -0.89076,-1.915164 -1.18559,-2.713482 -0.29481,-0.798321 -0.67054,-1.650155 -0.83496,-1.89298 -0.1644,-0.242816 -0.41209,-0.725429 -0.55043,-1.072478 -0.13835,-0.347044 -0.30539,-0.696182 -0.37119,-0.775866 -0.14718,-0.178179 -1.95866,-3.804995 -1.95866,-3.921465 0,-0.116483 -1.39651,-2.425995 -1.59303,-2.634494 -0.25476,-0.270305 -1.14308,-1.775768 -1.58959,-2.693959 -0.71778,-1.47594 -1.06145,-2.078425 -1.79968,-3.154966 -2.03285,-2.964434 -3.01947,-4.378026 -3.18146,-4.558215 -0.21796,-0.242471 -0.41329,-0.501748 -0.60004,-0.796411 -0.65177,-1.028457 -5.19177,-5.799904 -5.68983,-5.979884 -0.0711,-0.02573 -0.12933,-0.111249 -0.12933,-0.190092 0,-0.257587 -0.71264,-1.007879 -1.83942,-1.936593 -0.6082,-0.501283 -1.68933,-1.405961 -2.40256,-2.01039 -1.42595,-1.20846 -1.47141,-1.245381 -2.27549,-1.848043 -0.30697,-0.230061 -1.06416,-0.824277 -1.68265,-1.320482 -1.26827,-1.017473 -3.62688,-2.589756 -4.10425,-2.73595 -0.17352,-0.05311 -0.3155,-0.155457 -0.3155,-0.227389 0,-0.07188 -0.085,-0.13077 -0.18888,-0.13077 -0.10389,0 -0.33454,-0.126331 -0.51258,-0.28075 -0.17803,-0.154409 -0.81667,-0.56509 -1.41916,-0.912606 -0.60251,-0.347526 -1.31462,-0.780577 -1.58246,-0.962345 -0.26785,-0.181768 -1.13748,-0.601591 -1.93254,-0.932942 -0.79502,-0.331363 -1.98188,-0.852399 -2.6374,-1.15787 -2.74144,-1.277456 -6.82368,-2.8418 -11.428,-4.379282 -0.96022,-0.320642 -2.5855,-0.73044 -5.25827,-1.325793 -0.73266,-0.163197 -1.5845,-0.353997 -1.89298,-0.423985 -0.30849,-0.07 -1.38118,-0.25582 -2.38376,-0.412934 -1.00257,-0.157125 -2.8129,-0.441751 -4.02295,-0.632506 -1.21004,-0.190755 -3.03992,-0.41374 -4.0664,-0.495509 -2.58518,-0.205926 -4.60516,-0.424604 -5.86261,-0.634659 -0.56139,-0.09374 -5.48958,-0.343364 -9.745337,-0.493544 -2.1594,-0.07618 -4.7806,-0.175817 -5.824885,-0.221372 -1.4664,-0.06393 -2.184727,-0.02926 -3.154967,0.152631 -0.690935,0.129511 -1.918794,0.262588 -2.728574,0.295733 -3.695744,0.151262 -4.759191,0.318975 -9.114349,1.43734 -1.503862,0.386181 -3.459941,0.840518 -4.346843,1.009644 -3.938138,0.750965 -8.220358,2.490222 -14.062772,5.711688 -0.909293,0.501372 -2.234379,1.148342 -2.944636,1.437716 -2.648118,1.078883 -8.158363,3.896271 -8.944814,4.573471 -0.121937,0.105 -0.258503,0.15411 -0.303484,0.109085 -0.191363,-0.191363 -3.236714,1.9965 -3.095975,2.224221 0.04891,0.07905 0.02197,0.102461 -0.05973,0.052 -0.0817,-0.05057 -0.642786,0.239458 -1.24674,0.644386 -1.091237,0.731632 -1.324357,0.90746 -2.283754,1.722507 -0.275396,0.23397 -0.739184,0.601404 -1.030634,0.816538 -0.29146,0.215123 -0.638512,0.500875 -0.771214,0.634979 -0.132712,0.134115 -0.556797,0.489812 -0.942405,0.790436 -0.385607,0.300636 -1.111243,0.928295 -1.612538,1.394811 -0.501284,0.466515 -1.41623,1.285813 -2.033201,1.820672 -1.418692,1.22988 -5.794264,5.604503 -6.805851,6.804384 -0.421336,0.499758 -1.148927,1.320049 -1.616878,1.82287 -0.467951,0.502816 -0.972746,1.079886 -1.121766,1.282379 -0.149021,0.202491 -0.783591,0.993392 -1.410157,1.75755 -0.626555,0.764161 -1.379529,1.765821 -1.673275,2.225923 -0.293735,0.460088 -0.918689,1.37287 -1.388782,2.028408 -1.284411,1.79106 -2.236223,3.435563 -3.773848,6.520265 -0.49976,1.002578 -1.037004,2.043711 -1.193875,2.313642 -0.416202,0.716131 -1.820728,3.730336 -2.156165,4.627285 -0.158626,0.424161 -0.404984,0.979217 -0.547446,1.233457 -0.142473,0.254229 -0.418255,1.13762 -0.612853,1.96309 -0.194597,0.82546 -0.574684,2.091499 -0.844637,2.813413 -0.495663,1.325506 -1.550609,4.90562 -2.3196037,7.871899 -0.816957,3.1513 -1.499931,5.96832 -1.597799,6.59037 -0.05465,0.34705 -0.249593,1.262 -0.433315,2.03321 -0.634582,2.66383 -0.903353,4.4829 -0.984085,6.66049 -0.04427,1.19537 -0.131277,2.52046 -0.193251,2.94463 -0.244977,1.67675 -0.163351,7.52846 0.132294,9.48459 0.153161,1.0134 0.343684,2.71708 0.423389,3.78596 0.07972,1.06889 0.239612,2.25892 0.355355,2.64453 0.115743,0.38561 0.368074,1.43509 0.560728,2.33218 0.192666,0.8971 0.50867,2.25373 0.702241,3.01475 0.193571,0.76101 0.442281,2.0462 0.552691,2.85597 0.185853,1.36298 1.0376547,4.34182 1.5507527,5.42308 0.117852,0.24837 0.468724,1.44868 0.779716,2.66736 0.310992,1.21869 0.84245,3.16228 1.181023,4.3191 0.338572,1.15682 0.651805,2.37424 0.69608,2.70538 0.04427,0.33113 0.135904,0.70972 0.20364,0.84132 0.06768,0.13159 0.29517,0.71251 0.505424,1.29092 0.210265,0.57841 0.492948,1.3356 0.6282,1.68264 0.135241,0.34706 0.356834,0.97805 0.492407,1.40221 0.135572,0.42418 0.458831,1.18545 0.718339,1.69177 0.259518,0.50629 0.471848,0.97616 0.471848,1.0441 0,0.068 0.14658,0.34783 0.325743,0.62189 1.135501,1.73703 1.654064,2.56916 1.978912,3.17558 0.588629,1.09877 1.007635,1.70109 3.179908,4.57109 1.127033,1.48902 2.216802,2.95971 2.42169,3.2682 0.204899,0.30848 0.550494,0.82584 0.768001,1.14969 0.510371,0.75991 2.333494,2.70638 2.534871,2.70638 0.08513,0 0.225248,0.15471 0.311412,0.34379 0.08612,0.18909 0.384514,0.45178 0.663034,0.58378 0.603546,0.286 1.615443,1.09851 2.686685,2.15729 0.429153,0.42417 1.074875,0.99206 1.434911,1.26198 0.360047,0.26993 0.68929,0.58543 0.731643,0.70111 0.0424,0.11568 0.34364,0.41151 0.669504,0.65739 0.325865,0.24589 0.781781,0.60131 1.013145,0.78981 1.268821,1.0338 2.063873,1.6431 2.944636,2.25666 0.53985,0.37607 1.2073,0.91121 1.483204,1.1892 0.813457,0.81959 1.946242,1.74146 3.144379,2.559 0.616816,0.42086 1.40542,0.9605 1.752461,1.19918 0.347052,0.2387 1.009589,0.67498 1.472318,0.96952 0.462728,0.29455 0.872879,0.56928 0.911435,0.6105 0.138388,0.14796 0.923149,0.66664 1.542428,1.01946 1.853795,1.05613 4.307095,2.4818 5.60883,3.25939 1.684007,1.00593 3.394954,1.89329 4.424815,2.29486 0.389924,0.15203 1.431068,0.60421 2.313642,1.00484 1.48952,0.67615 4.153946,1.71688 5.576811,2.17832 0.333759,0.10821 1.816587,0.44858 3.295188,0.75631 1.4786,0.30774 3.855695,0.83905 5.282435,1.18072 1.426752,0.34165 3.067335,0.6948 3.64574,0.78475 3.308956,0.51465 7.903495,1.46077 8.649978,1.47858 1.418327,0.0338 5.640984,0.6578 8.475255,0.7886 1.222572,0.0564 3.67162,-0.002 3.67162,-0.002 2.431677,-0.001 4.310867,-0.0766 5.564577,-0.2228 1.04114,-0.12138 2.83947,-0.31284 3.99629,-0.42548 1.15682,-0.11267 1.66136,-0.21733 1.8353,-0.26608 0.17393,-0.0488 1.32043,-0.14985 1.68761,0.0523 0.12703,0.0699 0.32151,0.13071 0.46655,0.0847 0.74938,-0.23786 1.09636,-0.11738 1.59715,0.28221 0.33786,0.26958 0.45613,0.44909 0.36681,0.55671 -0.0725,0.0873 -0.0991,0.19157 -0.0591,0.23156 0.0969,0.0969 -1.41334,0.51561 -2.19125,0.60753 -0.34001,0.0402 -1.12299,0.13513 -1.73996,0.21103 -0.61698,0.0759 -1.37417,0.16424 -1.68265,0.19631 -0.30849,0.0321 -0.90794,0.0948 -1.3321,0.13943 -0.42417,0.0446 -1.5284,0.1122 -2.45385,0.15015 -0.92546,0.038 -2.4714,0.13077 -3.4354,0.20622 -1.67906,0.13143 -3.189817,0.14641 -4.697397,0.0466 l -4e-5,-1.4e-4 c -0.3856,-0.0255 -9.725296,-0.91694 -9.900762,-0.93549 -0.918674,-0.0972 -5.94643,-0.81437 -6.876281,-0.99803 z"
       id="path4529"
       inkscape:connector-curvature="0"
       sodipodi:nodetypes="ccccscccccccccccscscccsccccsccccccsscccsscccscscccccsccscccccccccccccccsccccscccccsscccccsssssscccsscccccccccccsssccsccccccccscsccccccccccccscscscccccccccccccsssccccccccccccscccccsccscccscccccssccccccscccccccccscsscccccccccscsccsccsccccsscsscsccccccssccccccscccccsccccccccccccccccscsccssscccscscccccccccccss"
       inkscape:label="circle" />
  </g>
</svg>
