<svg version="1.1" id="Ebene_1" x="0" y="0" xml:space="preserve" viewBox="0 0 92 78.9" width="92" height="78.9" xmlns:xlink="http://www.w3.org/1999/xlink" xmlns="http://www.w3.org/2000/svg"><style type="text/css" id="style2"/><g id="g22" transform="translate(-10.2 -14)" fill="#fff" fill-opacity="1"><defs id="defs5"><path id="SVGID_1_" d="M41.9 63v-1.6h3.2V55h3.2v-6.4h-3.2v-3.2h-3.2v-3.2h-9.5v6.4h-3.2v3.2H26v6.4h3.2v3.2h3.2v3.2H42V63zm-6.3-14.2H42v6.4h-6.4v-4.8z"/></defs><use xlink:href="#SVGID_1_" id="use7" x="0" y="0" width="100%" height="100%" clip-rule="evenodd" overflow="visible" fill-rule="evenodd" fill="#fff" fill-opacity="1"/><clipPath id="SVGID_2_"><use xlink:href="#SVGID_1_" id="use9" x="0" y="0" width="100%" height="100%" overflow="visible"/></clipPath><g clip-path="url(#SVGID_2_)" id="g20" fill="#fff" fill-opacity="1"><defs id="defs13"><path id="SVGID_3_" d="M-.8 0h426v122H-.8z"/></defs><use xlink:href="#SVGID_3_" id="use15" x="0" y="0" width="100%" height="100%" overflow="visible" fill="#fff" fill-opacity="1"/><clipPath id="SVGID_4_"><use xlink:href="#SVGID_3_" id="use17" x="0" y="0" width="100%" height="100%" overflow="visible"/></clipPath></g></g><g id="g42" transform="translate(-10.2 -14)" fill="#fff" fill-opacity="1"><defs id="defs25"><path id="SVGID_5_" d="M67.3 53.5v-4.8h6.3v6.4h-6.4v-1.6zM41.9 14.1v3.2h-6.4v3.2h-3.1v3.1h-3.2v3.2h-6.4V30h-1.6v-6.4h-4.8v3.2h-3V30h-3.2v7.8H15V33h4.8v3.2h-3.2v3.2h-3.2v6.4h4.8v-3.2h3.2v-3.2h3.2v-3.2h1.6v-1.6h3.2V33h6.2v-3.2h3.2v-3.2h9.6V33h6.2v3.2H61v3.2h3.2v6.4H61V49h-3.2v9.6H61v3.2h3.2v2.8h12.6v-3.2H80v-9.6h6.4V55h3.2v9.6h3v-3.2h3.2v-9.6h6.4v-6.4H99v-3.2h-1.6v-6.4h-3.2v6.4h-1.6v3.2h-3.2V33h-3.2v-3.2H83v-3.2h-3.2v-3.2h-3.2v-3h-3.2v-3.2h-6.2V14H41.9z"/></defs><use xlink:href="#SVGID_5_" id="use27" x="0" y="0" width="100%" height="100%" clip-rule="evenodd" overflow="visible" fill-rule="evenodd" fill="#fff" fill-opacity="1"/><clipPath id="SVGID_6_"><use xlink:href="#SVGID_5_" id="use29" x="0" y="0" width="100%" height="100%" overflow="visible"/></clipPath><g clip-path="url(#SVGID_6_)" id="g40" fill="#fff" fill-opacity="1"><defs id="defs33"><path id="SVGID_7_" d="M-.8 0h426v122H-.8z"/></defs><use xlink:href="#SVGID_7_" id="use35" x="0" y="0" width="100%" height="100%" overflow="visible" fill="#fff" fill-opacity="1"/><clipPath id="SVGID_8_"><use xlink:href="#SVGID_7_" id="use37" x="0" y="0" width="100%" height="100%" overflow="visible"/></clipPath></g></g><g id="g62" transform="translate(-10.2 -14)" fill="#fff" fill-opacity="1"><defs id="defs45"><path id="SVGID_9_" d="M86.3 67.7v3.2h-3.2V74h-3.2v3.2h-3.1v3.1h-3.2v3.2h-3.2v3.1h6.4v-3.1h3.1v-3.2h3.2v-3.1h3.2V74h3.1v-9.4h-3.1v1.5z"/></defs><use xlink:href="#SVGID_9_" id="use47" x="0" y="0" width="100%" height="100%" clip-rule="evenodd" overflow="visible" fill-rule="evenodd" fill="#fff" fill-opacity="1"/><clipPath id="SVGID_10_"><use xlink:href="#SVGID_9_" id="use49" x="0" y="0" width="100%" height="100%" overflow="visible"/></clipPath><g clip-path="url(#SVGID_10_)" id="g60" fill="#fff" fill-opacity="1"><defs id="defs53"><path id="SVGID_11_" d="M-.8 0h426v122H-.8z"/></defs><use xlink:href="#SVGID_11_" id="use55" x="0" y="0" width="100%" height="100%" overflow="visible" fill="#fff" fill-opacity="1"/><clipPath id="SVGID_12_"><use xlink:href="#SVGID_11_" id="use57" x="0" y="0" width="100%" height="100%" overflow="visible"/></clipPath></g></g><g id="g82" transform="translate(-10.2 -14)" fill="#fff" fill-opacity="1"><defs id="defs65"><path id="SVGID_13_" d="M59.3 89.8H41.9v3.1h22.2v-3.1h-3.2z"/></defs><use xlink:href="#SVGID_13_" id="use67" x="0" y="0" width="100%" height="100%" clip-rule="evenodd" overflow="visible" fill-rule="evenodd" fill="#fff" fill-opacity="1"/><clipPath id="SVGID_14_"><use xlink:href="#SVGID_13_" id="use69" x="0" y="0" width="100%" height="100%" overflow="visible"/></clipPath><g clip-path="url(#SVGID_14_)" id="g80" fill="#fff" fill-opacity="1"><defs id="defs73"><path id="SVGID_15_" d="M-.8 0h426v122H-.8z"/></defs><use xlink:href="#SVGID_15_" id="use75" x="0" y="0" width="100%" height="100%" overflow="visible" fill="#fff" fill-opacity="1"/><clipPath id="SVGID_16_"><use xlink:href="#SVGID_15_" id="use77" x="0" y="0" width="100%" height="100%" overflow="visible"/></clipPath></g></g><g id="g102" transform="translate(-10.2 -14)" fill="#fff" fill-opacity="1"><defs id="defs85"><path id="SVGID_17_" d="M35.6 89.8h3.1v-3.2h-3.1v1.6z"/></defs><use xlink:href="#SVGID_17_" id="use87" x="0" y="0" width="100%" height="100%" clip-rule="evenodd" overflow="visible" fill-rule="evenodd" fill="#fff" fill-opacity="1"/><clipPath id="SVGID_18_"><use xlink:href="#SVGID_17_" id="use89" x="0" y="0" width="100%" height="100%" overflow="visible"/></clipPath><g clip-path="url(#SVGID_18_)" id="g100" fill="#fff" fill-opacity="1"><defs id="defs93"><path id="SVGID_19_" d="M-.8 0h426v122H-.8z"/></defs><use xlink:href="#SVGID_19_" id="use95" x="0" y="0" width="100%" height="100%" overflow="visible" fill="#fff" fill-opacity="1"/><clipPath id="SVGID_20_"><use xlink:href="#SVGID_19_" id="use97" x="0" y="0" width="100%" height="100%" overflow="visible"/></clipPath></g></g><g id="g122" transform="translate(-10.2 -14)" fill="#fff" fill-opacity="1"><defs id="defs105"><path id="SVGID_21_" d="M32.4 83.5v3.1h3.2v-3.1H34z"/></defs><use xlink:href="#SVGID_21_" id="use107" x="0" y="0" width="100%" height="100%" clip-rule="evenodd" overflow="visible" fill-rule="evenodd" fill="#fff" fill-opacity="1"/><clipPath id="SVGID_22_"><use xlink:href="#SVGID_21_" id="use109" x="0" y="0" width="100%" height="100%" overflow="visible"/></clipPath><g clip-path="url(#SVGID_22_)" id="g120" fill="#fff" fill-opacity="1"><defs id="defs113"><path id="SVGID_23_" d="M-.8 0h426v122H-.8z"/></defs><use xlink:href="#SVGID_23_" id="use115" x="0" y="0" width="100%" height="100%" overflow="visible" fill="#fff" fill-opacity="1"/><clipPath id="SVGID_24_"><use xlink:href="#SVGID_23_" id="use117" x="0" y="0" width="100%" height="100%" overflow="visible"/></clipPath></g></g><g id="g142" transform="translate(-10.2 -14)" fill="#fff" fill-opacity="1"><defs id="defs125"><path id="SVGID_25_" d="M26.1 77.2h-3.2V74h-3.2v6.3h3.2v3.2h6.3v-3.2h-3.1v-1.5z"/></defs><use xlink:href="#SVGID_25_" id="use127" x="0" y="0" width="100%" height="100%" clip-rule="evenodd" overflow="visible" fill-rule="evenodd" fill="#fff" fill-opacity="1"/><clipPath id="SVGID_26_"><use xlink:href="#SVGID_25_" id="use129" x="0" y="0" width="100%" height="100%" overflow="visible"/></clipPath><g clip-path="url(#SVGID_26_)" id="g140" fill="#fff" fill-opacity="1"><defs id="defs133"><path id="SVGID_27_" d="M-.8 0h426v122H-.8z"/></defs><use xlink:href="#SVGID_27_" id="use135" x="0" y="0" width="100%" height="100%" overflow="visible" fill="#fff" fill-opacity="1"/><clipPath id="SVGID_28_"><use xlink:href="#SVGID_27_" id="use137" x="0" y="0" width="100%" height="100%" overflow="visible"/></clipPath></g></g><g id="g162" transform="translate(-10.2 -14)" fill="#fff" fill-opacity="1"><defs id="defs145"><path id="SVGID_29_" d="M19.7 63v-1.6h-3.1v6.3h3.1v-3.1z"/></defs><use xlink:href="#SVGID_29_" id="use147" x="0" y="0" width="100%" height="100%" clip-rule="evenodd" overflow="visible" fill-rule="evenodd" fill="#fff" fill-opacity="1"/><clipPath id="SVGID_30_"><use xlink:href="#SVGID_29_" id="use149" x="0" y="0" width="100%" height="100%" overflow="visible"/></clipPath><g clip-path="url(#SVGID_30_)" id="g160" fill="#fff" fill-opacity="1"><defs id="defs153"><path id="SVGID_31_" d="M-.8 0h426v122H-.8z"/></defs><use xlink:href="#SVGID_31_" id="use155" x="0" y="0" width="100%" height="100%" overflow="visible" fill="#fff" fill-opacity="1"/><clipPath id="SVGID_32_"><use xlink:href="#SVGID_31_" id="use157" x="0" y="0" width="100%" height="100%" overflow="visible"/></clipPath></g></g><g id="g182" transform="translate(-10.2 -14)" fill="#fff" fill-opacity="1"><defs id="defs165"><path id="SVGID_33_" d="M49.8 77.2h8V74h-9.5v3.2z"/></defs><use xlink:href="#SVGID_33_" id="use167" x="0" y="0" width="100%" height="100%" clip-rule="evenodd" overflow="visible" fill-rule="evenodd" fill="#fff" fill-opacity="1"/><clipPath id="SVGID_34_"><use xlink:href="#SVGID_33_" id="use169" x="0" y="0" width="100%" height="100%" overflow="visible"/></clipPath><g clip-path="url(#SVGID_34_)" id="g180" fill="#fff" fill-opacity="1"><defs id="defs173"><path id="SVGID_35_" d="M-.8 0h426v122H-.8z"/></defs><use xlink:href="#SVGID_35_" id="use175" x="0" y="0" width="100%" height="100%" overflow="visible" fill="#fff" fill-opacity="1"/><clipPath id="SVGID_36_"><use xlink:href="#SVGID_35_" id="use177" x="0" y="0" width="100%" height="100%" overflow="visible"/></clipPath></g></g><g id="g202" transform="translate(-10.2 -14)" fill="#fff" fill-opacity="1"><defs id="defs185"><path id="SVGID_37_" d="M60.9 70.9h-3.1V74h3.1v-1.6z"/></defs><use xlink:href="#SVGID_37_" id="use187" x="0" y="0" width="100%" height="100%" clip-rule="evenodd" overflow="visible" fill-rule="evenodd" fill="#fff" fill-opacity="1"/><clipPath id="SVGID_38_"><use xlink:href="#SVGID_37_" id="use189" x="0" y="0" width="100%" height="100%" overflow="visible"/></clipPath><g clip-path="url(#SVGID_38_)" id="g200" fill="#fff" fill-opacity="1"><defs id="defs193"><path id="SVGID_39_" d="M-.8 0h426v122H-.8z"/></defs><use xlink:href="#SVGID_39_" id="use195" x="0" y="0" width="100%" height="100%" overflow="visible" fill="#fff" fill-opacity="1"/><clipPath id="SVGID_40_"><use xlink:href="#SVGID_39_" id="use197" x="0" y="0" width="100%" height="100%" overflow="visible"/></clipPath></g></g></svg>
